<svg width="349" height="245" viewBox="0 0 349 245" fill="none" xmlns="http://www.w3.org/2000/svg">
<g clip-path="url(#clip0_2007_2044)">
<g clip-path="url(#clip1_2007_2044)">
<rect x="8.49121" y="30.8889" width="8" height="25.75" fill="#ED73B2"/>
<rect x="8.49121" y="56.6389" width="8" height="25.75" fill="#EA3324"/>
<rect x="8.49121" y="82.3889" width="8" height="25.75" fill="#F09436"/>
<rect x="8.49121" y="108.139" width="8" height="25.75" fill="#FFFF55"/>
<rect x="8.49121" y="133.889" width="8" height="25.75" fill="#3F8C26"/>
<rect x="8.49121" y="159.639" width="8" height="25.75" fill="#58BEBF"/>
<rect x="8.49121" y="185.389" width="8" height="25.75" fill="#3A0792"/>
<rect x="8.49121" y="211.139" width="8" height="25.75" fill="#82188A"/>
</g>
<rect x="4.49121" y="26.8889" width="16" height="214" rx="8" stroke="white" stroke-width="8"/>
<g clip-path="url(#clip2_2007_2044)">
<rect x="174.241" y="30.8889" width="8" height="25.75" fill="#ED73B2"/>
<rect x="174.241" y="56.6389" width="8" height="25.75" fill="#EA3324"/>
<rect x="174.241" y="82.3889" width="8" height="25.75" fill="#F09436"/>
<rect x="174.241" y="108.139" width="8" height="25.75" fill="#FFFF55"/>
<rect x="174.241" y="133.889" width="8" height="25.75" fill="#3F8C26"/>
<rect x="174.241" y="159.639" width="8" height="25.75" fill="#58BEBF"/>
<rect x="174.241" y="185.389" width="8" height="25.75" fill="#3A0792"/>
<rect x="174.241" y="211.139" width="8" height="25.75" fill="#82188A"/>
</g>
<rect x="170.241" y="26.8889" width="16" height="214" rx="8" stroke="white" stroke-width="8"/>
<g clip-path="url(#clip3_2007_2044)">
<rect x="18.2412" y="27.8889" width="8" height="25.75" fill="#ED73B2"/>
<rect x="18.2412" y="53.6389" width="8" height="25.75" fill="#EA3324"/>
<rect x="18.2412" y="79.3889" width="8" height="25.75" fill="#F09436"/>
<rect x="18.2412" y="105.139" width="8" height="25.75" fill="#FFFF55"/>
<rect x="18.2412" y="130.889" width="8" height="25.75" fill="#3F8C26"/>
<rect x="18.2412" y="156.639" width="8" height="25.75" fill="#58BEBF"/>
<rect x="18.2412" y="182.389" width="8" height="25.75" fill="#3A0792"/>
<rect x="18.2412" y="208.139" width="8" height="25.75" fill="#82188A"/>
</g>
<rect x="14.2412" y="23.8889" width="16" height="214" rx="8" stroke="white" stroke-width="8"/>
<g clip-path="url(#clip4_2007_2044)">
<rect x="183.991" y="28.8889" width="8" height="25.75" fill="#ED73B2"/>
<rect x="183.991" y="54.6389" width="8" height="25.75" fill="#EA3324"/>
<rect x="183.991" y="80.3889" width="8" height="25.75" fill="#F09436"/>
<rect x="183.991" y="106.139" width="8" height="25.75" fill="#FFFF55"/>
<rect x="183.991" y="131.889" width="8" height="25.75" fill="#3F8C26"/>
<rect x="183.991" y="157.639" width="8" height="25.75" fill="#58BEBF"/>
<rect x="183.991" y="183.389" width="8" height="25.75" fill="#3A0792"/>
<rect x="183.991" y="209.139" width="8" height="25.75" fill="#82188A"/>
</g>
<rect x="179.991" y="24.8889" width="16" height="214" rx="8" stroke="white" stroke-width="8"/>
<g clip-path="url(#clip5_2007_2044)">
<rect width="8" height="25.75" transform="matrix(-1 0 0 1 172.491 27.8889)" fill="#ED73B2"/>
<rect width="8" height="25.75" transform="matrix(-1 0 0 1 172.491 53.6389)" fill="#EA3324"/>
<rect width="8" height="25.75" transform="matrix(-1 0 0 1 172.491 79.3889)" fill="#F09436"/>
<rect width="8" height="25.75" transform="matrix(-1 0 0 1 172.491 105.139)" fill="#FFFF55"/>
<rect width="8" height="25.75" transform="matrix(-1 0 0 1 172.491 130.889)" fill="#3F8C26"/>
<rect width="8" height="25.75" transform="matrix(-1 0 0 1 172.491 156.639)" fill="#58BEBF"/>
<rect width="8" height="25.75" transform="matrix(-1 0 0 1 172.491 182.389)" fill="#3A0792"/>
<rect width="8" height="25.75" transform="matrix(-1 0 0 1 172.491 208.139)" fill="#82188A"/>
</g>
<rect x="4" y="-4" width="16" height="214" rx="8" transform="matrix(-1 0 0 1 180.491 27.8889)" stroke="white" stroke-width="8"/>
<g clip-path="url(#clip6_2007_2044)">
<rect x="27.9912" y="19.8889" width="8" height="25.75" fill="#ED73B2"/>
<rect x="27.9912" y="45.6389" width="8" height="25.75" fill="#EA3324"/>
<rect x="27.9912" y="71.3889" width="8" height="25.75" fill="#F09436"/>
<rect x="27.9912" y="97.1389" width="8" height="25.75" fill="#FFFF55"/>
<rect x="27.9912" y="122.889" width="8" height="25.75" fill="#3F8C26"/>
<rect x="27.9912" y="148.639" width="8" height="25.75" fill="#58BEBF"/>
<rect x="27.9912" y="174.389" width="8" height="25.75" fill="#3A0792"/>
<rect x="27.9912" y="200.139" width="8" height="25.75" fill="#82188A"/>
</g>
<rect x="23.9912" y="15.8889" width="16" height="214" rx="8" stroke="white" stroke-width="8"/>
<g clip-path="url(#clip7_2007_2044)">
<rect x="193.741" y="22.8889" width="8" height="25.75" fill="#ED73B2"/>
<rect x="193.741" y="48.6389" width="8" height="25.75" fill="#EA3324"/>
<rect x="193.741" y="74.3889" width="8" height="25.75" fill="#F09436"/>
<rect x="193.741" y="100.139" width="8" height="25.75" fill="#FFFF55"/>
<rect x="193.741" y="125.889" width="8" height="25.75" fill="#3F8C26"/>
<rect x="193.741" y="151.639" width="8" height="25.75" fill="#58BEBF"/>
<rect x="193.741" y="177.389" width="8" height="25.75" fill="#3A0792"/>
<rect x="193.741" y="203.139" width="8" height="25.75" fill="#82188A"/>
</g>
<rect x="189.741" y="18.8889" width="16" height="214" rx="8" stroke="white" stroke-width="8"/>
<g clip-path="url(#clip8_2007_2044)">
<rect width="8" height="25.75" transform="matrix(-1 0 0 1 162.741 19.8889)" fill="#ED73B2"/>
<rect width="8" height="25.75" transform="matrix(-1 0 0 1 162.741 45.6389)" fill="#EA3324"/>
<rect width="8" height="25.75" transform="matrix(-1 0 0 1 162.741 71.3889)" fill="#F09436"/>
<rect width="8" height="25.75" transform="matrix(-1 0 0 1 162.741 97.1389)" fill="#FFFF55"/>
<rect width="8" height="25.75" transform="matrix(-1 0 0 1 162.741 122.889)" fill="#3F8C26"/>
<rect width="8" height="25.75" transform="matrix(-1 0 0 1 162.741 148.639)" fill="#58BEBF"/>
<rect width="8" height="25.75" transform="matrix(-1 0 0 1 162.741 174.389)" fill="#3A0792"/>
<rect width="8" height="25.75" transform="matrix(-1 0 0 1 162.741 200.139)" fill="#82188A"/>
</g>
<rect x="4" y="-4" width="16" height="214" rx="8" transform="matrix(-1 0 0 1 170.741 19.8889)" stroke="white" stroke-width="8"/>
<g clip-path="url(#clip9_2007_2044)">
<rect x="37.7412" y="12.8889" width="8" height="25.75" fill="#ED73B2"/>
<rect x="37.7412" y="38.6389" width="8" height="25.75" fill="#EA3324"/>
<rect x="37.7412" y="64.3889" width="8" height="25.75" fill="#F09436"/>
<rect x="37.7412" y="90.1389" width="8" height="25.75" fill="#FFFF55"/>
<rect x="37.7412" y="115.889" width="8" height="25.75" fill="#3F8C26"/>
<rect x="37.7412" y="141.639" width="8" height="25.75" fill="#58BEBF"/>
<rect x="37.7412" y="167.389" width="8" height="25.75" fill="#3A0792"/>
<rect x="37.7412" y="193.139" width="8" height="25.75" fill="#82188A"/>
</g>
<rect x="33.7412" y="8.88892" width="16" height="214" rx="8" stroke="white" stroke-width="8"/>
<g clip-path="url(#clip10_2007_2044)">
<rect x="203.491" y="14.8889" width="8" height="25.75" fill="#ED73B2"/>
<rect x="203.491" y="40.6389" width="8" height="25.75" fill="#EA3324"/>
<rect x="203.491" y="66.3889" width="8" height="25.75" fill="#F09436"/>
<rect x="203.491" y="92.1389" width="8" height="25.75" fill="#FFFF55"/>
<rect x="203.491" y="117.889" width="8" height="25.75" fill="#3F8C26"/>
<rect x="203.491" y="143.639" width="8" height="25.75" fill="#58BEBF"/>
<rect x="203.491" y="169.389" width="8" height="25.75" fill="#3A0792"/>
<rect x="203.491" y="195.139" width="8" height="25.75" fill="#82188A"/>
</g>
<rect x="199.491" y="10.8889" width="16" height="214" rx="8" stroke="white" stroke-width="8"/>
<g clip-path="url(#clip11_2007_2044)">
<rect width="8" height="25.75" transform="matrix(-1 0 0 1 152.991 12.8889)" fill="#ED73B2"/>
<rect width="8" height="25.75" transform="matrix(-1 0 0 1 152.991 38.6389)" fill="#EA3324"/>
<rect width="8" height="25.75" transform="matrix(-1 0 0 1 152.991 64.3889)" fill="#F09436"/>
<rect width="8" height="25.75" transform="matrix(-1 0 0 1 152.991 90.1389)" fill="#FFFF55"/>
<rect width="8" height="25.75" transform="matrix(-1 0 0 1 152.991 115.889)" fill="#3F8C26"/>
<rect width="8" height="25.75" transform="matrix(-1 0 0 1 152.991 141.639)" fill="#58BEBF"/>
<rect width="8" height="25.75" transform="matrix(-1 0 0 1 152.991 167.389)" fill="#3A0792"/>
<rect width="8" height="25.75" transform="matrix(-1 0 0 1 152.991 193.139)" fill="#82188A"/>
</g>
<rect x="4" y="-4" width="16" height="214" rx="8" transform="matrix(-1 0 0 1 160.991 12.8889)" stroke="white" stroke-width="8"/>
<g clip-path="url(#clip12_2007_2044)">
<rect width="8" height="25.75" transform="matrix(-1 0 0 1 318.741 10.8889)" fill="#ED73B2"/>
<rect width="8" height="25.75" transform="matrix(-1 0 0 1 318.741 36.6389)" fill="#EA3324"/>
<rect width="8" height="25.75" transform="matrix(-1 0 0 1 318.741 62.3889)" fill="#F09436"/>
<rect width="8" height="25.75" transform="matrix(-1 0 0 1 318.741 88.1389)" fill="#FFFF55"/>
<rect width="8" height="25.75" transform="matrix(-1 0 0 1 318.741 113.889)" fill="#3F8C26"/>
<rect width="8" height="25.75" transform="matrix(-1 0 0 1 318.741 139.639)" fill="#58BEBF"/>
<rect width="8" height="25.75" transform="matrix(-1 0 0 1 318.741 165.389)" fill="#3A0792"/>
<rect width="8" height="25.75" transform="matrix(-1 0 0 1 318.741 191.139)" fill="#82188A"/>
</g>
<rect x="4" y="-4" width="16" height="214" rx="8" transform="matrix(-1 0 0 1 326.741 10.8889)" stroke="white" stroke-width="8"/>
<g clip-path="url(#clip13_2007_2044)">
<rect x="47.4912" y="8.88892" width="8" height="25.75" fill="#ED73B2"/>
<rect x="47.4912" y="34.6389" width="8" height="25.75" fill="#EA3324"/>
<rect x="47.4912" y="60.3889" width="8" height="25.75" fill="#F09436"/>
<rect x="47.4912" y="86.1389" width="8" height="25.75" fill="#FFFF55"/>
<rect x="47.4912" y="111.889" width="8" height="25.75" fill="#3F8C26"/>
<rect x="47.4912" y="137.639" width="8" height="25.75" fill="#58BEBF"/>
<rect x="47.4912" y="163.389" width="8" height="25.75" fill="#3A0792"/>
<rect x="47.4912" y="189.139" width="8" height="25.75" fill="#82188A"/>
</g>
<rect x="43.4912" y="4.88892" width="16" height="214" rx="8" stroke="white" stroke-width="8"/>
<g clip-path="url(#clip14_2007_2044)">
<rect x="213.241" y="9.88892" width="8" height="25.75" fill="#ED73B2"/>
<rect x="213.241" y="35.6389" width="8" height="25.75" fill="#EA3324"/>
<rect x="213.241" y="61.3889" width="8" height="25.75" fill="#F09436"/>
<rect x="213.241" y="87.1389" width="8" height="25.75" fill="#FFFF55"/>
<rect x="213.241" y="112.889" width="8" height="25.75" fill="#3F8C26"/>
<rect x="213.241" y="138.639" width="8" height="25.75" fill="#58BEBF"/>
<rect x="213.241" y="164.389" width="8" height="25.75" fill="#3A0792"/>
<rect x="213.241" y="190.139" width="8" height="25.75" fill="#82188A"/>
</g>
<rect x="209.241" y="5.88892" width="16" height="214" rx="8" stroke="white" stroke-width="8"/>
<g clip-path="url(#clip15_2007_2044)">
<rect width="8" height="25.75" transform="matrix(-1 0 0 1 143.241 9.88892)" fill="#ED73B2"/>
<rect width="8" height="25.75" transform="matrix(-1 0 0 1 143.241 35.6389)" fill="#EA3324"/>
<rect width="8" height="25.75" transform="matrix(-1 0 0 1 143.241 61.3889)" fill="#F09436"/>
<rect width="8" height="25.75" transform="matrix(-1 0 0 1 143.241 87.1389)" fill="#FFFF55"/>
<rect width="8" height="25.75" transform="matrix(-1 0 0 1 143.241 112.889)" fill="#3F8C26"/>
<rect width="8" height="25.75" transform="matrix(-1 0 0 1 143.241 138.639)" fill="#58BEBF"/>
<rect width="8" height="25.75" transform="matrix(-1 0 0 1 143.241 164.389)" fill="#3A0792"/>
<rect width="8" height="25.75" transform="matrix(-1 0 0 1 143.241 190.139)" fill="#82188A"/>
</g>
<rect x="4" y="-4" width="16" height="214" rx="8" transform="matrix(-1 0 0 1 151.241 9.88892)" stroke="white" stroke-width="8"/>
<g clip-path="url(#clip16_2007_2044)">
<rect width="8" height="25.75" transform="matrix(-1 0 0 1 308.991 8.88892)" fill="#ED73B2"/>
<rect width="8" height="25.75" transform="matrix(-1 0 0 1 308.991 34.6389)" fill="#EA3324"/>
<rect width="8" height="25.75" transform="matrix(-1 0 0 1 308.991 60.3889)" fill="#F09436"/>
<rect width="8" height="25.75" transform="matrix(-1 0 0 1 308.991 86.1389)" fill="#FFFF55"/>
<rect width="8" height="25.75" transform="matrix(-1 0 0 1 308.991 111.889)" fill="#3F8C26"/>
<rect width="8" height="25.75" transform="matrix(-1 0 0 1 308.991 137.639)" fill="#58BEBF"/>
<rect width="8" height="25.75" transform="matrix(-1 0 0 1 308.991 163.389)" fill="#3A0792"/>
<rect width="8" height="25.75" transform="matrix(-1 0 0 1 308.991 189.139)" fill="#82188A"/>
</g>
<rect x="4" y="-4" width="16" height="214" rx="8" transform="matrix(-1 0 0 1 316.991 8.88892)" stroke="white" stroke-width="8"/>
<g clip-path="url(#clip17_2007_2044)">
<rect width="8" height="25.75" transform="matrix(-1 0 0 1 94.4912 28.8889)" fill="#ED73B2"/>
<rect width="8" height="25.75" transform="matrix(-1 0 0 1 94.4912 54.6389)" fill="#EA3324"/>
<rect width="8" height="25.75" transform="matrix(-1 0 0 1 94.4912 80.3889)" fill="#F09436"/>
<rect width="8" height="25.75" transform="matrix(-1 0 0 1 94.4912 106.139)" fill="#FFFF55"/>
<rect width="8" height="25.75" transform="matrix(-1 0 0 1 94.4912 131.889)" fill="#3F8C26"/>
<rect width="8" height="25.75" transform="matrix(-1 0 0 1 94.4912 157.639)" fill="#58BEBF"/>
<rect width="8" height="25.75" transform="matrix(-1 0 0 1 94.4912 183.389)" fill="#3A0792"/>
<rect width="8" height="25.75" transform="matrix(-1 0 0 1 94.4912 209.139)" fill="#82188A"/>
</g>
<rect x="4" y="-4" width="16" height="214" rx="8" transform="matrix(-1 0 0 1 102.491 28.8889)" stroke="white" stroke-width="8"/>
<g clip-path="url(#clip18_2007_2044)">
<rect width="8" height="25.75" transform="matrix(-1 0 0 1 260.241 28.8889)" fill="#ED73B2"/>
<rect width="8" height="25.75" transform="matrix(-1 0 0 1 260.241 54.6389)" fill="#EA3324"/>
<rect width="8" height="25.75" transform="matrix(-1 0 0 1 260.241 80.3889)" fill="#F09436"/>
<rect width="8" height="25.75" transform="matrix(-1 0 0 1 260.241 106.139)" fill="#FFFF55"/>
<rect width="8" height="25.75" transform="matrix(-1 0 0 1 260.241 131.889)" fill="#3F8C26"/>
<rect width="8" height="25.75" transform="matrix(-1 0 0 1 260.241 157.639)" fill="#58BEBF"/>
<rect width="8" height="25.75" transform="matrix(-1 0 0 1 260.241 183.389)" fill="#3A0792"/>
<rect width="8" height="25.75" transform="matrix(-1 0 0 1 260.241 209.139)" fill="#82188A"/>
</g>
<rect x="4" y="-4" width="16" height="214" rx="8" transform="matrix(-1 0 0 1 268.241 28.8889)" stroke="white" stroke-width="8"/>
<g clip-path="url(#clip19_2007_2044)">
<rect x="96.2412" y="29.8889" width="8" height="25.75" fill="#ED73B2"/>
<rect x="96.2412" y="55.6389" width="8" height="25.75" fill="#EA3324"/>
<rect x="96.2412" y="81.3889" width="8" height="25.75" fill="#F09436"/>
<rect x="96.2412" y="107.139" width="8" height="25.75" fill="#FFFF55"/>
<rect x="96.2412" y="132.889" width="8" height="25.75" fill="#3F8C26"/>
<rect x="96.2412" y="158.639" width="8" height="25.75" fill="#58BEBF"/>
<rect x="96.2412" y="184.389" width="8" height="25.75" fill="#3A0792"/>
<rect x="96.2412" y="210.139" width="8" height="25.75" fill="#82188A"/>
</g>
<rect x="92.2412" y="25.8889" width="16" height="214" rx="8" stroke="white" stroke-width="8"/>
<g clip-path="url(#clip20_2007_2044)">
<rect x="261.991" y="30.8889" width="8" height="25.75" fill="#ED73B2"/>
<rect x="261.991" y="56.6389" width="8" height="25.75" fill="#EA3324"/>
<rect x="261.991" y="82.3889" width="8" height="25.75" fill="#F09436"/>
<rect x="261.991" y="108.139" width="8" height="25.75" fill="#FFFF55"/>
<rect x="261.991" y="133.889" width="8" height="25.75" fill="#3F8C26"/>
<rect x="261.991" y="159.639" width="8" height="25.75" fill="#58BEBF"/>
<rect x="261.991" y="185.389" width="8" height="25.75" fill="#3A0792"/>
<rect x="261.991" y="211.139" width="8" height="25.75" fill="#82188A"/>
</g>
<rect x="257.991" y="26.8889" width="16" height="214" rx="8" stroke="white" stroke-width="8"/>
<g clip-path="url(#clip21_2007_2044)">
<rect width="8" height="25.75" transform="matrix(-1 0 0 1 84.7412 24.8889)" fill="#ED73B2"/>
<rect width="8" height="25.75" transform="matrix(-1 0 0 1 84.7412 50.6389)" fill="#EA3324"/>
<rect width="8" height="25.75" transform="matrix(-1 0 0 1 84.7412 76.3889)" fill="#F09436"/>
<rect width="8" height="25.75" transform="matrix(-1 0 0 1 84.7412 102.139)" fill="#FFFF55"/>
<rect width="8" height="25.75" transform="matrix(-1 0 0 1 84.7412 127.889)" fill="#3F8C26"/>
<rect width="8" height="25.75" transform="matrix(-1 0 0 1 84.7412 153.639)" fill="#58BEBF"/>
<rect width="8" height="25.75" transform="matrix(-1 0 0 1 84.7412 179.389)" fill="#3A0792"/>
<rect width="8" height="25.75" transform="matrix(-1 0 0 1 84.7412 205.139)" fill="#82188A"/>
</g>
<rect x="4" y="-4" width="16" height="214" rx="8" transform="matrix(-1 0 0 1 92.7412 24.8889)" stroke="white" stroke-width="8"/>
<g clip-path="url(#clip22_2007_2044)">
<rect width="8" height="25.75" transform="matrix(-1 0 0 1 250.491 21.8889)" fill="#ED73B2"/>
<rect width="8" height="25.75" transform="matrix(-1 0 0 1 250.491 47.6389)" fill="#EA3324"/>
<rect width="8" height="25.75" transform="matrix(-1 0 0 1 250.491 73.3889)" fill="#F09436"/>
<rect width="8" height="25.75" transform="matrix(-1 0 0 1 250.491 99.1389)" fill="#FFFF55"/>
<rect width="8" height="25.75" transform="matrix(-1 0 0 1 250.491 124.889)" fill="#3F8C26"/>
<rect width="8" height="25.75" transform="matrix(-1 0 0 1 250.491 150.639)" fill="#58BEBF"/>
<rect width="8" height="25.75" transform="matrix(-1 0 0 1 250.491 176.389)" fill="#3A0792"/>
<rect width="8" height="25.75" transform="matrix(-1 0 0 1 250.491 202.139)" fill="#82188A"/>
</g>
<rect x="4" y="-4" width="16" height="214" rx="8" transform="matrix(-1 0 0 1 258.491 21.8889)" stroke="white" stroke-width="8"/>
<g clip-path="url(#clip23_2007_2044)">
<rect x="105.991" y="25.8889" width="8" height="25.75" fill="#ED73B2"/>
<rect x="105.991" y="51.6389" width="8" height="25.75" fill="#EA3324"/>
<rect x="105.991" y="77.3889" width="8" height="25.75" fill="#F09436"/>
<rect x="105.991" y="103.139" width="8" height="25.75" fill="#FFFF55"/>
<rect x="105.991" y="128.889" width="8" height="25.75" fill="#3F8C26"/>
<rect x="105.991" y="154.639" width="8" height="25.75" fill="#58BEBF"/>
<rect x="105.991" y="180.389" width="8" height="25.75" fill="#3A0792"/>
<rect x="105.991" y="206.139" width="8" height="25.75" fill="#82188A"/>
</g>
<rect x="101.991" y="21.8889" width="16" height="214" rx="8" stroke="white" stroke-width="8"/>
<g clip-path="url(#clip24_2007_2044)">
<rect x="271.741" y="27.8889" width="8" height="25.75" fill="#ED73B2"/>
<rect x="271.741" y="53.6389" width="8" height="25.75" fill="#EA3324"/>
<rect x="271.741" y="79.3889" width="8" height="25.75" fill="#F09436"/>
<rect x="271.741" y="105.139" width="8" height="25.75" fill="#FFFF55"/>
<rect x="271.741" y="130.889" width="8" height="25.75" fill="#3F8C26"/>
<rect x="271.741" y="156.639" width="8" height="25.75" fill="#58BEBF"/>
<rect x="271.741" y="182.389" width="8" height="25.75" fill="#3A0792"/>
<rect x="271.741" y="208.139" width="8" height="25.75" fill="#82188A"/>
</g>
<rect x="267.741" y="23.8889" width="16" height="214" rx="8" stroke="white" stroke-width="8"/>
<g clip-path="url(#clip25_2007_2044)">
<rect width="8" height="25.75" transform="matrix(-1 0 0 1 74.9912 16.8889)" fill="#ED73B2"/>
<rect width="8" height="25.75" transform="matrix(-1 0 0 1 74.9912 42.6389)" fill="#EA3324"/>
<rect width="8" height="25.75" transform="matrix(-1 0 0 1 74.9912 68.3889)" fill="#F09436"/>
<rect width="8" height="25.75" transform="matrix(-1 0 0 1 74.9912 94.1389)" fill="#FFFF55"/>
<rect width="8" height="25.75" transform="matrix(-1 0 0 1 74.9912 119.889)" fill="#3F8C26"/>
<rect width="8" height="25.75" transform="matrix(-1 0 0 1 74.9912 145.639)" fill="#58BEBF"/>
<rect width="8" height="25.75" transform="matrix(-1 0 0 1 74.9912 171.389)" fill="#3A0792"/>
<rect width="8" height="25.75" transform="matrix(-1 0 0 1 74.9912 197.139)" fill="#82188A"/>
</g>
<rect x="4" y="-4" width="16" height="214" rx="8" transform="matrix(-1 0 0 1 82.9912 16.8889)" stroke="white" stroke-width="8"/>
<g clip-path="url(#clip26_2007_2044)">
<rect width="8" height="25.75" transform="matrix(-1 0 0 1 240.741 13.8889)" fill="#ED73B2"/>
<rect width="8" height="25.75" transform="matrix(-1 0 0 1 240.741 39.6389)" fill="#EA3324"/>
<rect width="8" height="25.75" transform="matrix(-1 0 0 1 240.741 65.3889)" fill="#F09436"/>
<rect width="8" height="25.75" transform="matrix(-1 0 0 1 240.741 91.1389)" fill="#FFFF55"/>
<rect width="8" height="25.75" transform="matrix(-1 0 0 1 240.741 116.889)" fill="#3F8C26"/>
<rect width="8" height="25.75" transform="matrix(-1 0 0 1 240.741 142.639)" fill="#58BEBF"/>
<rect width="8" height="25.75" transform="matrix(-1 0 0 1 240.741 168.389)" fill="#3A0792"/>
<rect width="8" height="25.75" transform="matrix(-1 0 0 1 240.741 194.139)" fill="#82188A"/>
</g>
<rect x="4" y="-4" width="16" height="214" rx="8" transform="matrix(-1 0 0 1 248.741 13.8889)" stroke="white" stroke-width="8"/>
<g clip-path="url(#clip27_2007_2044)">
<rect x="115.741" y="18.8889" width="8" height="25.75" fill="#ED73B2"/>
<rect x="115.741" y="44.6389" width="8" height="25.75" fill="#EA3324"/>
<rect x="115.741" y="70.3889" width="8" height="25.75" fill="#F09436"/>
<rect x="115.741" y="96.1389" width="8" height="25.75" fill="#FFFF55"/>
<rect x="115.741" y="121.889" width="8" height="25.75" fill="#3F8C26"/>
<rect x="115.741" y="147.639" width="8" height="25.75" fill="#58BEBF"/>
<rect x="115.741" y="173.389" width="8" height="25.75" fill="#3A0792"/>
<rect x="115.741" y="199.139" width="8" height="25.75" fill="#82188A"/>
</g>
<rect x="111.741" y="14.8889" width="16" height="214" rx="8" stroke="white" stroke-width="8"/>
<g clip-path="url(#clip28_2007_2044)">
<rect x="281.491" y="19.8889" width="8" height="25.75" fill="#ED73B2"/>
<rect x="281.491" y="45.6389" width="8" height="25.75" fill="#EA3324"/>
<rect x="281.491" y="71.3889" width="8" height="25.75" fill="#F09436"/>
<rect x="281.491" y="97.1389" width="8" height="25.75" fill="#FFFF55"/>
<rect x="281.491" y="122.889" width="8" height="25.75" fill="#3F8C26"/>
<rect x="281.491" y="148.639" width="8" height="25.75" fill="#58BEBF"/>
<rect x="281.491" y="174.389" width="8" height="25.75" fill="#3A0792"/>
<rect x="281.491" y="200.139" width="8" height="25.75" fill="#82188A"/>
</g>
<rect x="277.491" y="15.8889" width="16" height="214" rx="8" stroke="white" stroke-width="8"/>
<g clip-path="url(#clip29_2007_2044)">
<rect width="8" height="25.75" transform="matrix(-1 0 0 1 65.2412 9.88892)" fill="#ED73B2"/>
<rect width="8" height="25.75" transform="matrix(-1 0 0 1 65.2412 35.6389)" fill="#EA3324"/>
<rect width="8" height="25.75" transform="matrix(-1 0 0 1 65.2412 61.3889)" fill="#F09436"/>
<rect width="8" height="25.75" transform="matrix(-1 0 0 1 65.2412 87.1389)" fill="#FFFF55"/>
<rect width="8" height="25.75" transform="matrix(-1 0 0 1 65.2412 112.889)" fill="#3F8C26"/>
<rect width="8" height="25.75" transform="matrix(-1 0 0 1 65.2412 138.639)" fill="#58BEBF"/>
<rect width="8" height="25.75" transform="matrix(-1 0 0 1 65.2412 164.389)" fill="#3A0792"/>
<rect width="8" height="25.75" transform="matrix(-1 0 0 1 65.2412 190.139)" fill="#82188A"/>
</g>
<rect x="4" y="-4" width="16" height="214" rx="8" transform="matrix(-1 0 0 1 73.2412 9.88892)" stroke="white" stroke-width="8"/>
<g clip-path="url(#clip30_2007_2044)">
<rect width="8" height="25.75" transform="matrix(-1 0 0 1 230.991 9.88892)" fill="#ED73B2"/>
<rect width="8" height="25.75" transform="matrix(-1 0 0 1 230.991 35.6389)" fill="#EA3324"/>
<rect width="8" height="25.75" transform="matrix(-1 0 0 1 230.991 61.3889)" fill="#F09436"/>
<rect width="8" height="25.75" transform="matrix(-1 0 0 1 230.991 87.1389)" fill="#FFFF55"/>
<rect width="8" height="25.75" transform="matrix(-1 0 0 1 230.991 112.889)" fill="#3F8C26"/>
<rect width="8" height="25.75" transform="matrix(-1 0 0 1 230.991 138.639)" fill="#58BEBF"/>
<rect width="8" height="25.75" transform="matrix(-1 0 0 1 230.991 164.389)" fill="#3A0792"/>
<rect width="8" height="25.75" transform="matrix(-1 0 0 1 230.991 190.139)" fill="#82188A"/>
</g>
<rect x="4" y="-4" width="16" height="214" rx="8" transform="matrix(-1 0 0 1 238.991 9.88892)" stroke="white" stroke-width="8"/>
<g clip-path="url(#clip31_2007_2044)">
<rect x="125.491" y="10.8889" width="8" height="25.75" fill="#ED73B2"/>
<rect x="125.491" y="36.6389" width="8" height="25.75" fill="#EA3324"/>
<rect x="125.491" y="62.3889" width="8" height="25.75" fill="#F09436"/>
<rect x="125.491" y="88.1389" width="8" height="25.75" fill="#FFFF55"/>
<rect x="125.491" y="113.889" width="8" height="25.75" fill="#3F8C26"/>
<rect x="125.491" y="139.639" width="8" height="25.75" fill="#58BEBF"/>
<rect x="125.491" y="165.389" width="8" height="25.75" fill="#3A0792"/>
<rect x="125.491" y="191.139" width="8" height="25.75" fill="#82188A"/>
</g>
<rect x="121.491" y="6.88892" width="16" height="214" rx="8" stroke="white" stroke-width="8"/>
<g clip-path="url(#clip32_2007_2044)">
<rect x="291.241" y="12.8889" width="8" height="25.75" fill="#ED73B2"/>
<rect x="291.241" y="38.6389" width="8" height="25.75" fill="#EA3324"/>
<rect x="291.241" y="64.3889" width="8" height="25.75" fill="#F09436"/>
<rect x="291.241" y="90.1389" width="8" height="25.75" fill="#FFFF55"/>
<rect x="291.241" y="115.889" width="8" height="25.75" fill="#3F8C26"/>
<rect x="291.241" y="141.639" width="8" height="25.75" fill="#58BEBF"/>
<rect x="291.241" y="167.389" width="8" height="25.75" fill="#3A0792"/>
<rect x="291.241" y="193.139" width="8" height="25.75" fill="#82188A"/>
</g>
<rect x="287.241" y="8.88892" width="16" height="214" rx="8" stroke="white" stroke-width="8"/>
<g clip-path="url(#clip33_2007_2044)">
<g clip-path="url(#clip34_2007_2044)">
<rect x="8.49121" y="30.8889" width="8" height="25.75" fill="#ED73B2"/>
<rect x="8.49121" y="56.6389" width="8" height="25.75" fill="#EA3324"/>
<rect x="8.49121" y="82.3889" width="8" height="25.75" fill="#F09436"/>
<rect x="8.49121" y="108.139" width="8" height="25.75" fill="#FFFF55"/>
<rect x="8.49121" y="133.889" width="8" height="25.75" fill="#3F8C26"/>
<rect x="8.49121" y="159.639" width="8" height="25.75" fill="#58BEBF"/>
<rect x="8.49121" y="185.389" width="8" height="25.75" fill="#3A0792"/>
<rect x="8.49121" y="211.139" width="8" height="25.75" fill="#82188A"/>
</g>
<g clip-path="url(#clip35_2007_2044)">
<rect x="174.241" y="30.8889" width="8" height="25.75" fill="#ED73B2"/>
<rect x="174.241" y="56.6389" width="8" height="25.75" fill="#EA3324"/>
<rect x="174.241" y="82.3889" width="8" height="25.75" fill="#F09436"/>
<rect x="174.241" y="108.139" width="8" height="25.75" fill="#FFFF55"/>
<rect x="174.241" y="133.889" width="8" height="25.75" fill="#3F8C26"/>
<rect x="174.241" y="159.639" width="8" height="25.75" fill="#58BEBF"/>
<rect x="174.241" y="185.389" width="8" height="25.75" fill="#3A0792"/>
<rect x="174.241" y="211.139" width="8" height="25.75" fill="#82188A"/>
</g>
<g clip-path="url(#clip36_2007_2044)">
<rect x="18.2412" y="27.8889" width="8" height="25.75" fill="#ED73B2"/>
<rect x="18.2412" y="53.6389" width="8" height="25.75" fill="#EA3324"/>
<rect x="18.2412" y="79.3889" width="8" height="25.75" fill="#F09436"/>
<rect x="18.2412" y="105.139" width="8" height="25.75" fill="#FFFF55"/>
<rect x="18.2412" y="130.889" width="8" height="25.75" fill="#3F8C26"/>
<rect x="18.2412" y="156.639" width="8" height="25.75" fill="#58BEBF"/>
<rect x="18.2412" y="182.389" width="8" height="25.75" fill="#3A0792"/>
<rect x="18.2412" y="208.139" width="8" height="25.75" fill="#82188A"/>
</g>
<g clip-path="url(#clip37_2007_2044)">
<rect x="183.991" y="28.8889" width="8" height="25.75" fill="#ED73B2"/>
<rect x="183.991" y="54.6389" width="8" height="25.75" fill="#EA3324"/>
<rect x="183.991" y="80.3889" width="8" height="25.75" fill="#F09436"/>
<rect x="183.991" y="106.139" width="8" height="25.75" fill="#FFFF55"/>
<rect x="183.991" y="131.889" width="8" height="25.75" fill="#3F8C26"/>
<rect x="183.991" y="157.639" width="8" height="25.75" fill="#58BEBF"/>
<rect x="183.991" y="183.389" width="8" height="25.75" fill="#3A0792"/>
<rect x="183.991" y="209.139" width="8" height="25.75" fill="#82188A"/>
</g>
<g clip-path="url(#clip38_2007_2044)">
<rect width="8" height="25.75" transform="matrix(-1 0 0 1 172.491 27.8889)" fill="#ED73B2"/>
<rect width="8" height="25.75" transform="matrix(-1 0 0 1 172.491 53.6389)" fill="#EA3324"/>
<rect width="8" height="25.75" transform="matrix(-1 0 0 1 172.491 79.3889)" fill="#F09436"/>
<rect width="8" height="25.75" transform="matrix(-1 0 0 1 172.491 105.139)" fill="#FFFF55"/>
<rect width="8" height="25.75" transform="matrix(-1 0 0 1 172.491 130.889)" fill="#3F8C26"/>
<rect width="8" height="25.75" transform="matrix(-1 0 0 1 172.491 156.639)" fill="#58BEBF"/>
<rect width="8" height="25.75" transform="matrix(-1 0 0 1 172.491 182.389)" fill="#3A0792"/>
<rect width="8" height="25.75" transform="matrix(-1 0 0 1 172.491 208.139)" fill="#82188A"/>
</g>
<g clip-path="url(#clip39_2007_2044)">
<rect x="27.9912" y="19.8889" width="8" height="25.75" fill="#ED73B2"/>
<rect x="27.9912" y="45.6389" width="8" height="25.75" fill="#EA3324"/>
<rect x="27.9912" y="71.3889" width="8" height="25.75" fill="#F09436"/>
<rect x="27.9912" y="97.1389" width="8" height="25.75" fill="#FFFF55"/>
<rect x="27.9912" y="122.889" width="8" height="25.75" fill="#3F8C26"/>
<rect x="27.9912" y="148.639" width="8" height="25.75" fill="#58BEBF"/>
<rect x="27.9912" y="174.389" width="8" height="25.75" fill="#3A0792"/>
<rect x="27.9912" y="200.139" width="8" height="25.75" fill="#82188A"/>
</g>
<g clip-path="url(#clip40_2007_2044)">
<rect x="193.741" y="22.8889" width="8" height="25.75" fill="#ED73B2"/>
<rect x="193.741" y="48.6389" width="8" height="25.75" fill="#EA3324"/>
<rect x="193.741" y="74.3889" width="8" height="25.75" fill="#F09436"/>
<rect x="193.741" y="100.139" width="8" height="25.75" fill="#FFFF55"/>
<rect x="193.741" y="125.889" width="8" height="25.75" fill="#3F8C26"/>
<rect x="193.741" y="151.639" width="8" height="25.75" fill="#58BEBF"/>
<rect x="193.741" y="177.389" width="8" height="25.75" fill="#3A0792"/>
<rect x="193.741" y="203.139" width="8" height="25.75" fill="#82188A"/>
</g>
<g clip-path="url(#clip41_2007_2044)">
<rect width="8" height="25.75" transform="matrix(-1 0 0 1 162.741 19.8889)" fill="#ED73B2"/>
<rect width="8" height="25.75" transform="matrix(-1 0 0 1 162.741 45.6389)" fill="#EA3324"/>
<rect width="8" height="25.75" transform="matrix(-1 0 0 1 162.741 71.3889)" fill="#F09436"/>
<rect width="8" height="25.75" transform="matrix(-1 0 0 1 162.741 97.1389)" fill="#FFFF55"/>
<rect width="8" height="25.75" transform="matrix(-1 0 0 1 162.741 122.889)" fill="#3F8C26"/>
<rect width="8" height="25.75" transform="matrix(-1 0 0 1 162.741 148.639)" fill="#58BEBF"/>
<rect width="8" height="25.75" transform="matrix(-1 0 0 1 162.741 174.389)" fill="#3A0792"/>
<rect width="8" height="25.75" transform="matrix(-1 0 0 1 162.741 200.139)" fill="#82188A"/>
</g>
<g clip-path="url(#clip42_2007_2044)">
<rect x="37.7412" y="12.8889" width="8" height="25.75" fill="#ED73B2"/>
<rect x="37.7412" y="38.6389" width="8" height="25.75" fill="#EA3324"/>
<rect x="37.7412" y="64.3889" width="8" height="25.75" fill="#F09436"/>
<rect x="37.7412" y="90.1389" width="8" height="25.75" fill="#FFFF55"/>
<rect x="37.7412" y="115.889" width="8" height="25.75" fill="#3F8C26"/>
<rect x="37.7412" y="141.639" width="8" height="25.75" fill="#58BEBF"/>
<rect x="37.7412" y="167.389" width="8" height="25.75" fill="#3A0792"/>
<rect x="37.7412" y="193.139" width="8" height="25.75" fill="#82188A"/>
</g>
<g clip-path="url(#clip43_2007_2044)">
<rect x="203.491" y="14.8889" width="8" height="25.75" fill="#ED73B2"/>
<rect x="203.491" y="40.6389" width="8" height="25.75" fill="#EA3324"/>
<rect x="203.491" y="66.3889" width="8" height="25.75" fill="#F09436"/>
<rect x="203.491" y="92.1389" width="8" height="25.75" fill="#FFFF55"/>
<rect x="203.491" y="117.889" width="8" height="25.75" fill="#3F8C26"/>
<rect x="203.491" y="143.639" width="8" height="25.75" fill="#58BEBF"/>
<rect x="203.491" y="169.389" width="8" height="25.75" fill="#3A0792"/>
<rect x="203.491" y="195.139" width="8" height="25.75" fill="#82188A"/>
</g>
<g clip-path="url(#clip44_2007_2044)">
<rect width="8" height="25.75" transform="matrix(-1 0 0 1 152.991 12.8889)" fill="#ED73B2"/>
<rect width="8" height="25.75" transform="matrix(-1 0 0 1 152.991 38.6389)" fill="#EA3324"/>
<rect width="8" height="25.75" transform="matrix(-1 0 0 1 152.991 64.3889)" fill="#F09436"/>
<rect width="8" height="25.75" transform="matrix(-1 0 0 1 152.991 90.1389)" fill="#FFFF55"/>
<rect width="8" height="25.75" transform="matrix(-1 0 0 1 152.991 115.889)" fill="#3F8C26"/>
<rect width="8" height="25.75" transform="matrix(-1 0 0 1 152.991 141.639)" fill="#58BEBF"/>
<rect width="8" height="25.75" transform="matrix(-1 0 0 1 152.991 167.389)" fill="#3A0792"/>
<rect width="8" height="25.75" transform="matrix(-1 0 0 1 152.991 193.139)" fill="#82188A"/>
</g>
<g clip-path="url(#clip45_2007_2044)">
<rect width="8" height="25.75" transform="matrix(-1 0 0 1 318.741 10.8889)" fill="#ED73B2"/>
<rect width="8" height="25.75" transform="matrix(-1 0 0 1 318.741 36.6389)" fill="#EA3324"/>
<rect width="8" height="25.75" transform="matrix(-1 0 0 1 318.741 62.3889)" fill="#F09436"/>
<rect width="8" height="25.75" transform="matrix(-1 0 0 1 318.741 88.1389)" fill="#FFFF55"/>
<rect width="8" height="25.75" transform="matrix(-1 0 0 1 318.741 113.889)" fill="#3F8C26"/>
<rect width="8" height="25.75" transform="matrix(-1 0 0 1 318.741 139.639)" fill="#58BEBF"/>
<rect width="8" height="25.75" transform="matrix(-1 0 0 1 318.741 165.389)" fill="#3A0792"/>
<rect width="8" height="25.75" transform="matrix(-1 0 0 1 318.741 191.139)" fill="#82188A"/>
</g>
<g clip-path="url(#clip46_2007_2044)">
<rect x="47.4912" y="8.88892" width="8" height="25.75" fill="#ED73B2"/>
<rect x="47.4912" y="34.6389" width="8" height="25.75" fill="#EA3324"/>
<rect x="47.4912" y="60.3889" width="8" height="25.75" fill="#F09436"/>
<rect x="47.4912" y="86.1389" width="8" height="25.75" fill="#FFFF55"/>
<rect x="47.4912" y="111.889" width="8" height="25.75" fill="#3F8C26"/>
<rect x="47.4912" y="137.639" width="8" height="25.75" fill="#58BEBF"/>
<rect x="47.4912" y="163.389" width="8" height="25.75" fill="#3A0792"/>
<rect x="47.4912" y="189.139" width="8" height="25.75" fill="#82188A"/>
</g>
<g clip-path="url(#clip47_2007_2044)">
<rect x="213.241" y="9.88892" width="8" height="25.75" fill="#ED73B2"/>
<rect x="213.241" y="35.6389" width="8" height="25.75" fill="#EA3324"/>
<rect x="213.241" y="61.3889" width="8" height="25.75" fill="#F09436"/>
<rect x="213.241" y="87.1389" width="8" height="25.75" fill="#FFFF55"/>
<rect x="213.241" y="112.889" width="8" height="25.75" fill="#3F8C26"/>
<rect x="213.241" y="138.639" width="8" height="25.75" fill="#58BEBF"/>
<rect x="213.241" y="164.389" width="8" height="25.75" fill="#3A0792"/>
<rect x="213.241" y="190.139" width="8" height="25.75" fill="#82188A"/>
</g>
<g clip-path="url(#clip48_2007_2044)">
<rect width="8" height="25.75" transform="matrix(-1 0 0 1 143.241 9.88892)" fill="#ED73B2"/>
<rect width="8" height="25.75" transform="matrix(-1 0 0 1 143.241 35.6389)" fill="#EA3324"/>
<rect width="8" height="25.75" transform="matrix(-1 0 0 1 143.241 61.3889)" fill="#F09436"/>
<rect width="8" height="25.75" transform="matrix(-1 0 0 1 143.241 87.1389)" fill="#FFFF55"/>
<rect width="8" height="25.75" transform="matrix(-1 0 0 1 143.241 112.889)" fill="#3F8C26"/>
<rect width="8" height="25.75" transform="matrix(-1 0 0 1 143.241 138.639)" fill="#58BEBF"/>
<rect width="8" height="25.75" transform="matrix(-1 0 0 1 143.241 164.389)" fill="#3A0792"/>
<rect width="8" height="25.75" transform="matrix(-1 0 0 1 143.241 190.139)" fill="#82188A"/>
</g>
<g clip-path="url(#clip49_2007_2044)">
<rect width="8" height="25.75" transform="matrix(-1 0 0 1 308.991 8.88892)" fill="#ED73B2"/>
<rect width="8" height="25.75" transform="matrix(-1 0 0 1 308.991 34.6389)" fill="#EA3324"/>
<rect width="8" height="25.75" transform="matrix(-1 0 0 1 308.991 60.3889)" fill="#F09436"/>
<rect width="8" height="25.75" transform="matrix(-1 0 0 1 308.991 86.1389)" fill="#FFFF55"/>
<rect width="8" height="25.75" transform="matrix(-1 0 0 1 308.991 111.889)" fill="#3F8C26"/>
<rect width="8" height="25.75" transform="matrix(-1 0 0 1 308.991 137.639)" fill="#58BEBF"/>
<rect width="8" height="25.75" transform="matrix(-1 0 0 1 308.991 163.389)" fill="#3A0792"/>
<rect width="8" height="25.75" transform="matrix(-1 0 0 1 308.991 189.139)" fill="#82188A"/>
</g>
<g clip-path="url(#clip50_2007_2044)">
<rect width="8" height="25.75" transform="matrix(-1 0 0 1 94.4912 28.8889)" fill="#ED73B2"/>
<rect width="8" height="25.75" transform="matrix(-1 0 0 1 94.4912 54.6389)" fill="#EA3324"/>
<rect width="8" height="25.75" transform="matrix(-1 0 0 1 94.4912 80.3889)" fill="#F09436"/>
<rect width="8" height="25.75" transform="matrix(-1 0 0 1 94.4912 106.139)" fill="#FFFF55"/>
<rect width="8" height="25.75" transform="matrix(-1 0 0 1 94.4912 131.889)" fill="#3F8C26"/>
<rect width="8" height="25.75" transform="matrix(-1 0 0 1 94.4912 157.639)" fill="#58BEBF"/>
<rect width="8" height="25.75" transform="matrix(-1 0 0 1 94.4912 183.389)" fill="#3A0792"/>
<rect width="8" height="25.75" transform="matrix(-1 0 0 1 94.4912 209.139)" fill="#82188A"/>
</g>
<g clip-path="url(#clip51_2007_2044)">
<rect width="8" height="25.75" transform="matrix(-1 0 0 1 260.241 28.8889)" fill="#ED73B2"/>
<rect width="8" height="25.75" transform="matrix(-1 0 0 1 260.241 54.6389)" fill="#EA3324"/>
<rect width="8" height="25.75" transform="matrix(-1 0 0 1 260.241 80.3889)" fill="#F09436"/>
<rect width="8" height="25.75" transform="matrix(-1 0 0 1 260.241 106.139)" fill="#FFFF55"/>
<rect width="8" height="25.75" transform="matrix(-1 0 0 1 260.241 131.889)" fill="#3F8C26"/>
<rect width="8" height="25.75" transform="matrix(-1 0 0 1 260.241 157.639)" fill="#58BEBF"/>
<rect width="8" height="25.75" transform="matrix(-1 0 0 1 260.241 183.389)" fill="#3A0792"/>
<rect width="8" height="25.75" transform="matrix(-1 0 0 1 260.241 209.139)" fill="#82188A"/>
</g>
<g clip-path="url(#clip52_2007_2044)">
<rect x="96.2412" y="29.8889" width="8" height="25.75" fill="#ED73B2"/>
<rect x="96.2412" y="55.6389" width="8" height="25.75" fill="#EA3324"/>
<rect x="96.2412" y="81.3889" width="8" height="25.75" fill="#F09436"/>
<rect x="96.2412" y="107.139" width="8" height="25.75" fill="#FFFF55"/>
<rect x="96.2412" y="132.889" width="8" height="25.75" fill="#3F8C26"/>
<rect x="96.2412" y="158.639" width="8" height="25.75" fill="#58BEBF"/>
<rect x="96.2412" y="184.389" width="8" height="25.75" fill="#3A0792"/>
<rect x="96.2412" y="210.139" width="8" height="25.75" fill="#82188A"/>
</g>
<g clip-path="url(#clip53_2007_2044)">
<rect x="261.991" y="30.8889" width="8" height="25.75" fill="#ED73B2"/>
<rect x="261.991" y="56.6389" width="8" height="25.75" fill="#EA3324"/>
<rect x="261.991" y="82.3889" width="8" height="25.75" fill="#F09436"/>
<rect x="261.991" y="108.139" width="8" height="25.75" fill="#FFFF55"/>
<rect x="261.991" y="133.889" width="8" height="25.75" fill="#3F8C26"/>
<rect x="261.991" y="159.639" width="8" height="25.75" fill="#58BEBF"/>
<rect x="261.991" y="185.389" width="8" height="25.75" fill="#3A0792"/>
<rect x="261.991" y="211.139" width="8" height="25.75" fill="#82188A"/>
</g>
<g clip-path="url(#clip54_2007_2044)">
<rect width="8" height="25.75" transform="matrix(-1 0 0 1 84.7412 24.8889)" fill="#ED73B2"/>
<rect width="8" height="25.75" transform="matrix(-1 0 0 1 84.7412 50.6389)" fill="#EA3324"/>
<rect width="8" height="25.75" transform="matrix(-1 0 0 1 84.7412 76.3889)" fill="#F09436"/>
<rect width="8" height="25.75" transform="matrix(-1 0 0 1 84.7412 102.139)" fill="#FFFF55"/>
<rect width="8" height="25.75" transform="matrix(-1 0 0 1 84.7412 127.889)" fill="#3F8C26"/>
<rect width="8" height="25.75" transform="matrix(-1 0 0 1 84.7412 153.639)" fill="#58BEBF"/>
<rect width="8" height="25.75" transform="matrix(-1 0 0 1 84.7412 179.389)" fill="#3A0792"/>
<rect width="8" height="25.75" transform="matrix(-1 0 0 1 84.7412 205.139)" fill="#82188A"/>
</g>
<g clip-path="url(#clip55_2007_2044)">
<rect width="8" height="25.75" transform="matrix(-1 0 0 1 250.491 21.8889)" fill="#ED73B2"/>
<rect width="8" height="25.75" transform="matrix(-1 0 0 1 250.491 47.6389)" fill="#EA3324"/>
<rect width="8" height="25.75" transform="matrix(-1 0 0 1 250.491 73.3889)" fill="#F09436"/>
<rect width="8" height="25.75" transform="matrix(-1 0 0 1 250.491 99.1389)" fill="#FFFF55"/>
<rect width="8" height="25.75" transform="matrix(-1 0 0 1 250.491 124.889)" fill="#3F8C26"/>
<rect width="8" height="25.75" transform="matrix(-1 0 0 1 250.491 150.639)" fill="#58BEBF"/>
<rect width="8" height="25.75" transform="matrix(-1 0 0 1 250.491 176.389)" fill="#3A0792"/>
<rect width="8" height="25.75" transform="matrix(-1 0 0 1 250.491 202.139)" fill="#82188A"/>
</g>
<g clip-path="url(#clip56_2007_2044)">
<rect x="105.991" y="25.8889" width="8" height="25.75" fill="#ED73B2"/>
<rect x="105.991" y="51.6389" width="8" height="25.75" fill="#EA3324"/>
<rect x="105.991" y="77.3889" width="8" height="25.75" fill="#F09436"/>
<rect x="105.991" y="103.139" width="8" height="25.75" fill="#FFFF55"/>
<rect x="105.991" y="128.889" width="8" height="25.75" fill="#3F8C26"/>
<rect x="105.991" y="154.639" width="8" height="25.75" fill="#58BEBF"/>
<rect x="105.991" y="180.389" width="8" height="25.75" fill="#3A0792"/>
<rect x="105.991" y="206.139" width="8" height="25.75" fill="#82188A"/>
</g>
<g clip-path="url(#clip57_2007_2044)">
<rect x="271.741" y="27.8889" width="8" height="25.75" fill="#ED73B2"/>
<rect x="271.741" y="53.6389" width="8" height="25.75" fill="#EA3324"/>
<rect x="271.741" y="79.3889" width="8" height="25.75" fill="#F09436"/>
<rect x="271.741" y="105.139" width="8" height="25.75" fill="#FFFF55"/>
<rect x="271.741" y="130.889" width="8" height="25.75" fill="#3F8C26"/>
<rect x="271.741" y="156.639" width="8" height="25.75" fill="#58BEBF"/>
<rect x="271.741" y="182.389" width="8" height="25.75" fill="#3A0792"/>
<rect x="271.741" y="208.139" width="8" height="25.75" fill="#82188A"/>
</g>
<g clip-path="url(#clip58_2007_2044)">
<rect width="8" height="25.75" transform="matrix(-1 0 0 1 74.9912 16.8889)" fill="#ED73B2"/>
<rect width="8" height="25.75" transform="matrix(-1 0 0 1 74.9912 42.6389)" fill="#EA3324"/>
<rect width="8" height="25.75" transform="matrix(-1 0 0 1 74.9912 68.3889)" fill="#F09436"/>
<rect width="8" height="25.75" transform="matrix(-1 0 0 1 74.9912 94.1389)" fill="#FFFF55"/>
<rect width="8" height="25.75" transform="matrix(-1 0 0 1 74.9912 119.889)" fill="#3F8C26"/>
<rect width="8" height="25.75" transform="matrix(-1 0 0 1 74.9912 145.639)" fill="#58BEBF"/>
<rect width="8" height="25.75" transform="matrix(-1 0 0 1 74.9912 171.389)" fill="#3A0792"/>
<rect width="8" height="25.75" transform="matrix(-1 0 0 1 74.9912 197.139)" fill="#82188A"/>
</g>
<g clip-path="url(#clip59_2007_2044)">
<rect width="8" height="25.75" transform="matrix(-1 0 0 1 240.741 13.8889)" fill="#ED73B2"/>
<rect width="8" height="25.75" transform="matrix(-1 0 0 1 240.741 39.6389)" fill="#EA3324"/>
<rect width="8" height="25.75" transform="matrix(-1 0 0 1 240.741 65.3889)" fill="#F09436"/>
<rect width="8" height="25.75" transform="matrix(-1 0 0 1 240.741 91.1389)" fill="#FFFF55"/>
<rect width="8" height="25.75" transform="matrix(-1 0 0 1 240.741 116.889)" fill="#3F8C26"/>
<rect width="8" height="25.75" transform="matrix(-1 0 0 1 240.741 142.639)" fill="#58BEBF"/>
<rect width="8" height="25.75" transform="matrix(-1 0 0 1 240.741 168.389)" fill="#3A0792"/>
<rect width="8" height="25.75" transform="matrix(-1 0 0 1 240.741 194.139)" fill="#82188A"/>
</g>
<g clip-path="url(#clip60_2007_2044)">
<rect x="115.741" y="18.8889" width="8" height="25.75" fill="#ED73B2"/>
<rect x="115.741" y="44.6389" width="8" height="25.75" fill="#EA3324"/>
<rect x="115.741" y="70.3889" width="8" height="25.75" fill="#F09436"/>
<rect x="115.741" y="96.1389" width="8" height="25.75" fill="#FFFF55"/>
<rect x="115.741" y="121.889" width="8" height="25.75" fill="#3F8C26"/>
<rect x="115.741" y="147.639" width="8" height="25.75" fill="#58BEBF"/>
<rect x="115.741" y="173.389" width="8" height="25.75" fill="#3A0792"/>
<rect x="115.741" y="199.139" width="8" height="25.75" fill="#82188A"/>
</g>
<g clip-path="url(#clip61_2007_2044)">
<rect x="281.491" y="19.8889" width="8" height="25.75" fill="#ED73B2"/>
<rect x="281.491" y="45.6389" width="8" height="25.75" fill="#EA3324"/>
<rect x="281.491" y="71.3889" width="8" height="25.75" fill="#F09436"/>
<rect x="281.491" y="97.1389" width="8" height="25.75" fill="#FFFF55"/>
<rect x="281.491" y="122.889" width="8" height="25.75" fill="#3F8C26"/>
<rect x="281.491" y="148.639" width="8" height="25.75" fill="#58BEBF"/>
<rect x="281.491" y="174.389" width="8" height="25.75" fill="#3A0792"/>
<rect x="281.491" y="200.139" width="8" height="25.75" fill="#82188A"/>
</g>
<g clip-path="url(#clip62_2007_2044)">
<rect width="8" height="25.75" transform="matrix(-1 0 0 1 65.2412 9.88892)" fill="#ED73B2"/>
<rect width="8" height="25.75" transform="matrix(-1 0 0 1 65.2412 35.6389)" fill="#EA3324"/>
<rect width="8" height="25.75" transform="matrix(-1 0 0 1 65.2412 61.3889)" fill="#F09436"/>
<rect width="8" height="25.75" transform="matrix(-1 0 0 1 65.2412 87.1389)" fill="#FFFF55"/>
<rect width="8" height="25.75" transform="matrix(-1 0 0 1 65.2412 112.889)" fill="#3F8C26"/>
<rect width="8" height="25.75" transform="matrix(-1 0 0 1 65.2412 138.639)" fill="#58BEBF"/>
<rect width="8" height="25.75" transform="matrix(-1 0 0 1 65.2412 164.389)" fill="#3A0792"/>
<rect width="8" height="25.75" transform="matrix(-1 0 0 1 65.2412 190.139)" fill="#82188A"/>
</g>
<g clip-path="url(#clip63_2007_2044)">
<rect width="8" height="25.75" transform="matrix(-1 0 0 1 230.991 9.88892)" fill="#ED73B2"/>
<rect width="8" height="25.75" transform="matrix(-1 0 0 1 230.991 35.6389)" fill="#EA3324"/>
<rect width="8" height="25.75" transform="matrix(-1 0 0 1 230.991 61.3889)" fill="#F09436"/>
<rect width="8" height="25.75" transform="matrix(-1 0 0 1 230.991 87.1389)" fill="#FFFF55"/>
<rect width="8" height="25.75" transform="matrix(-1 0 0 1 230.991 112.889)" fill="#3F8C26"/>
<rect width="8" height="25.75" transform="matrix(-1 0 0 1 230.991 138.639)" fill="#58BEBF"/>
<rect width="8" height="25.75" transform="matrix(-1 0 0 1 230.991 164.389)" fill="#3A0792"/>
<rect width="8" height="25.75" transform="matrix(-1 0 0 1 230.991 190.139)" fill="#82188A"/>
</g>
<g clip-path="url(#clip64_2007_2044)">
<rect x="125.491" y="10.8889" width="8" height="25.75" fill="#ED73B2"/>
<rect x="125.491" y="36.6389" width="8" height="25.75" fill="#EA3324"/>
<rect x="125.491" y="62.3889" width="8" height="25.75" fill="#F09436"/>
<rect x="125.491" y="88.1389" width="8" height="25.75" fill="#FFFF55"/>
<rect x="125.491" y="113.889" width="8" height="25.75" fill="#3F8C26"/>
<rect x="125.491" y="139.639" width="8" height="25.75" fill="#58BEBF"/>
<rect x="125.491" y="165.389" width="8" height="25.75" fill="#3A0792"/>
<rect x="125.491" y="191.139" width="8" height="25.75" fill="#82188A"/>
</g>
<g clip-path="url(#clip65_2007_2044)">
<rect x="291.241" y="12.8889" width="8" height="25.75" fill="#ED73B2"/>
<rect x="291.241" y="38.6389" width="8" height="25.75" fill="#EA3324"/>
<rect x="291.241" y="64.3889" width="8" height="25.75" fill="#F09436"/>
<rect x="291.241" y="90.1389" width="8" height="25.75" fill="#FFFF55"/>
<rect x="291.241" y="115.889" width="8" height="25.75" fill="#3F8C26"/>
<rect x="291.241" y="141.639" width="8" height="25.75" fill="#58BEBF"/>
<rect x="291.241" y="167.389" width="8" height="25.75" fill="#3A0792"/>
<rect x="291.241" y="193.139" width="8" height="25.75" fill="#82188A"/>
</g>
</g>
<rect x="320.75" y="36.0728" width="28.0811" height="164.262" rx="6" fill="white"/>
<path d="M338.819 83.3008L338.819 81.5944L342.302 81.5944L342.302 83.3008L338.819 83.3008ZM338.712 79.0348C338.712 78.7551 338.743 78.4849 338.804 78.2242C338.861 77.9635 338.961 77.7313 339.103 77.5275C339.245 77.3189 339.44 77.153 339.686 77.0298C339.932 76.9065 340.243 76.8449 340.617 76.8449L342.302 76.8449L342.302 78.5513L340.831 78.5513C340.475 78.5513 340.224 78.6437 340.077 78.8286C339.925 79.0135 339.85 79.3476 339.85 79.8311C339.85 80.0871 339.878 80.3359 339.935 80.5776C339.992 80.8146 340.06 81.0279 340.141 81.2175C340.217 81.4071 340.293 81.5565 340.369 81.6655L340.098 81.6797C340.013 81.6607 339.895 81.5967 339.743 81.4877C339.586 81.374 339.43 81.2104 339.274 80.9971C339.117 80.7838 338.984 80.516 338.875 80.1937C338.766 79.8667 338.712 79.4803 338.712 79.0348ZM338.712 74.3706C338.712 74.091 338.743 73.8208 338.804 73.5601C338.861 73.2994 338.961 73.0671 339.103 72.8633C339.245 72.6547 339.44 72.4888 339.686 72.3656C339.932 72.2424 340.243 72.1807 340.617 72.1807L342.302 72.1807L342.302 73.8871L340.831 73.8871C340.475 73.8871 340.224 73.9796 340.077 74.1644C339.925 74.3493 339.85 74.6835 339.85 75.1669C339.85 75.4229 339.878 75.6718 339.935 75.9135C339.992 76.1505 340.06 76.3638 340.141 76.5534C340.217 76.743 340.293 76.8923 340.369 77.0013L340.027 77.0155C339.956 76.9966 339.85 76.9255 339.707 76.8022C339.565 76.679 339.418 76.506 339.266 76.2832C339.115 76.0557 338.984 75.7831 338.875 75.4656C338.766 75.1432 338.712 74.7783 338.712 74.3706Z" fill="#ED73B2"/>
<path d="M342.409 87.2158C342.409 87.9694 342.347 88.5975 342.224 89.0999C342.101 89.5976 341.904 89.9721 341.634 90.2233C341.364 90.4698 341.008 90.593 340.568 90.593C340.127 90.593 339.771 90.4698 339.501 90.2233C339.226 89.9721 339.027 89.5976 338.904 89.0999C338.776 88.5975 338.712 87.9694 338.712 87.2158C338.712 86.4668 338.776 85.8459 338.904 85.3529C339.027 84.8552 339.226 84.4832 339.501 84.2367C339.771 83.9902 340.127 83.867 340.568 83.867C341.008 83.867 341.364 83.9902 341.634 84.2367C341.904 84.4832 342.101 84.8552 342.224 85.3529C342.347 85.8459 342.409 86.4668 342.409 87.2158ZM341.378 87.2158C341.378 86.865 341.35 86.5711 341.293 86.3341C341.231 86.0971 341.141 85.917 341.023 85.7938C340.899 85.6705 340.748 85.6089 340.568 85.6089C340.388 85.6089 340.236 85.6705 340.113 85.7938C339.989 85.9123 339.897 86.09 339.835 86.327C339.774 86.564 339.743 86.8603 339.743 87.2158C339.743 87.5665 339.774 87.8651 339.835 88.1116C339.897 88.3534 339.989 88.5382 340.113 88.6662C340.231 88.7894 340.383 88.8511 340.568 88.8511C340.748 88.8511 340.899 88.7894 341.023 88.6662C341.141 88.543 341.231 88.3605 341.293 88.1187C341.35 87.8723 341.378 87.5713 341.378 87.2158Z" fill="#ED73B2"/>
<path d="M340.788 91.0917C341.129 91.0917 341.421 91.1984 341.663 91.4117C341.904 91.625 342.089 91.9615 342.217 92.4213C342.345 92.8811 342.409 93.4783 342.409 94.213C342.409 94.9477 342.35 95.5734 342.231 96.0901C342.113 96.602 341.919 96.993 341.648 97.2632C341.378 97.5287 341.018 97.6614 340.568 97.6614C340.117 97.6614 339.757 97.5287 339.487 97.2632C339.212 96.993 339.015 96.602 338.897 96.0901C338.774 95.5734 338.712 94.9477 338.712 94.213C338.712 93.4783 338.776 92.8835 338.904 92.4284C339.032 91.9734 339.217 91.6392 339.458 91.4259C339.7 91.2126 339.989 91.1036 340.326 91.0988L340.326 92.663C340.141 92.7389 339.999 92.9095 339.899 93.175C339.795 93.4404 339.743 93.7864 339.743 94.213C339.743 94.559 339.769 94.86 339.821 95.116C339.868 95.372 339.951 95.571 340.07 95.7132C340.188 95.8507 340.354 95.9194 340.568 95.9194C340.776 95.9194 340.94 95.8507 341.058 95.7132C341.177 95.5758 341.26 95.3791 341.307 95.1231C341.354 94.8671 341.378 94.5638 341.378 94.213C341.378 93.7864 341.328 93.4404 341.229 93.175C341.125 92.9048 340.978 92.7318 340.788 92.6559L340.788 91.0917Z" fill="#ED73B2"/>
<path d="M341.229 98.1928L342.302 98.1928L342.302 99.9988L341.229 99.9988L341.229 98.1928Z" fill="#ED73B2"/>
<path d="M341.051 102.227L341.051 100.549C341.326 100.591 341.565 100.729 341.769 100.961C341.973 101.189 342.132 101.523 342.246 101.964C342.355 102.4 342.409 102.957 342.409 103.635C342.409 104.35 342.352 104.969 342.238 105.49C342.125 106.007 341.933 106.405 341.663 106.685C341.392 106.964 341.027 107.104 340.568 107.104C340.113 107.104 339.75 106.969 339.48 106.699C339.205 106.424 339.008 106.028 338.89 105.512C338.771 104.995 338.712 104.369 338.712 103.635C338.712 102.914 338.776 102.324 338.904 101.864C339.032 101.404 339.24 101.065 339.53 100.847C339.814 100.629 340.2 100.525 340.688 100.535L340.688 105.369C340.812 105.346 340.925 105.279 341.03 105.17C341.134 105.057 341.219 104.884 341.286 104.651C341.347 104.414 341.378 104.099 341.378 103.706C341.378 103.298 341.35 102.964 341.293 102.703C341.236 102.438 341.155 102.279 341.051 102.227ZM339.743 103.706C339.743 104.208 339.797 104.592 339.906 104.857C340.015 105.118 340.124 105.272 340.233 105.32L340.233 102.191C340.11 102.224 339.999 102.357 339.899 102.589C339.795 102.822 339.743 103.194 339.743 103.706Z" fill="#ED73B2"/>
<path d="M342.402 112.257C342.402 112.769 342.331 113.224 342.189 113.622C342.042 114.02 341.831 114.335 341.556 114.567C341.281 114.795 340.949 114.909 340.56 114.909C340.153 114.909 339.812 114.795 339.537 114.567C339.262 114.335 339.055 114.02 338.918 113.622C338.781 113.224 338.712 112.769 338.712 112.257C338.712 111.83 338.757 111.446 338.847 111.105C338.932 110.764 339.058 110.472 339.224 110.23C339.385 109.989 339.579 109.804 339.807 109.676C340.034 109.548 340.286 109.484 340.56 109.484C340.835 109.484 341.087 109.548 341.314 109.676C341.537 109.804 341.731 109.989 341.897 110.23C342.058 110.472 342.184 110.764 342.274 111.105C342.359 111.446 342.402 111.83 342.402 112.257ZM341.321 111.617C341.321 111.257 341.3 110.927 341.257 110.628C341.21 110.325 341.132 110.083 341.023 109.903C340.914 109.718 340.76 109.626 340.56 109.626C340.357 109.626 340.2 109.718 340.091 109.903C339.982 110.083 339.906 110.325 339.864 110.628C339.821 110.927 339.8 111.257 339.8 111.617C339.8 112.1 339.864 112.475 339.992 112.74C340.115 113.006 340.304 113.138 340.56 113.138C340.726 113.138 340.866 113.079 340.98 112.961C341.094 112.842 341.179 112.669 341.236 112.442C341.293 112.214 341.321 111.939 341.321 111.617ZM337.396 109.626L337.396 107.92L342.302 107.92L342.302 109.526C342.193 109.545 342.018 109.567 341.776 109.59C341.53 109.614 341.255 109.626 340.951 109.626L337.396 109.626Z" fill="#ED73B2"/>
<path d="M336.991 115.55L338.058 115.55L338.058 117.356L336.991 117.356L336.991 115.55ZM338.818 117.306L338.818 115.6L342.302 115.6L342.302 117.306L338.818 117.306Z" fill="#ED73B2"/>
<path d="M342.302 118.068L342.302 119.774L338.818 119.774L338.818 118.068L342.302 118.068ZM340.503 119.703L340.845 119.689C340.944 119.703 341.06 119.75 341.193 119.831C341.326 119.907 341.463 120.013 341.605 120.151C341.748 120.288 341.88 120.457 342.004 120.656C342.122 120.855 342.219 121.082 342.295 121.338C342.371 121.594 342.409 121.879 342.409 122.191C342.409 122.504 342.376 122.8 342.309 123.08C342.248 123.36 342.143 123.609 341.997 123.827C341.85 124.045 341.653 124.215 341.406 124.339C341.155 124.462 340.842 124.523 340.468 124.523L338.818 124.523L338.818 122.817L340.29 122.817C340.551 122.817 340.752 122.774 340.894 122.689C341.037 122.599 341.136 122.459 341.193 122.27C341.245 122.08 341.271 121.836 341.271 121.537C341.271 121.258 341.231 120.999 341.15 120.762C341.065 120.521 340.963 120.31 340.845 120.129C340.726 119.945 340.612 119.802 340.503 119.703Z" fill="#ED73B2"/>
<path d="M341.812 128.539C341.812 129.212 341.757 129.767 341.648 130.203C341.535 130.639 341.366 130.961 341.144 131.17C340.916 131.378 340.632 131.482 340.29 131.482C339.973 131.482 339.698 131.381 339.466 131.177C339.229 130.973 339.044 130.655 338.911 130.224C338.778 129.788 338.712 129.226 338.712 128.539C338.712 128.401 338.712 128.262 338.712 128.119C338.712 127.977 338.712 127.837 338.712 127.7L338.712 124.984L339.608 124.984C339.622 125.292 339.608 125.605 339.565 125.922C339.518 126.235 339.456 126.524 339.38 126.79L339.274 126.868C339.34 126.655 339.425 126.453 339.53 126.264C339.634 126.069 339.759 125.913 339.906 125.794C340.053 125.676 340.229 125.617 340.433 125.617C340.726 125.617 340.978 125.719 341.186 125.922C341.39 126.121 341.546 126.437 341.655 126.868C341.76 127.295 341.812 127.852 341.812 128.539ZM343.831 127.024L343.639 127.024C343.497 127.024 343.412 127.088 343.383 127.216C343.359 127.34 343.348 127.536 343.348 127.807L343.348 129.79C343.348 130.127 343.324 130.399 343.277 130.608C343.229 130.812 343.165 130.968 343.085 131.077C343.004 131.181 342.914 131.253 342.814 131.29C342.72 131.324 342.625 131.34 342.53 131.34C342.326 131.34 342.167 131.264 342.054 131.113C341.935 130.961 341.852 130.729 341.805 130.416C341.757 130.103 341.734 129.705 341.734 129.221L341.812 128.539C341.812 128.937 341.833 129.214 341.876 129.371C341.914 129.527 341.992 129.605 342.11 129.605C342.177 129.605 342.227 129.575 342.26 129.513C342.288 129.451 342.302 129.368 342.302 129.264L342.302 127.167C342.302 126.697 342.336 126.328 342.402 126.057C342.473 125.787 342.589 125.598 342.75 125.489C342.916 125.375 343.141 125.318 343.426 125.318L343.831 125.318L343.831 127.024ZM340.88 128.539C340.88 128.226 340.857 127.975 340.809 127.785C340.757 127.591 340.688 127.451 340.603 127.366C340.518 127.28 340.423 127.238 340.319 127.238C340.2 127.238 340.098 127.28 340.013 127.366C339.928 127.451 339.861 127.589 339.814 127.778C339.767 127.968 339.743 128.221 339.743 128.539C339.743 128.852 339.767 129.105 339.814 129.3C339.861 129.494 339.928 129.636 340.013 129.726C340.098 129.816 340.2 129.861 340.319 129.861C340.423 129.861 340.518 129.819 340.603 129.733C340.688 129.643 340.757 129.501 340.809 129.307C340.857 129.112 340.88 128.856 340.88 128.539Z" fill="#ED73B2"/>
<path d="M339.835 135.356L339.835 132.299L340.901 132.299L340.901 135.356L339.835 135.356Z" fill="#ED73B2"/>
<path d="M341.051 137.867L341.051 136.189C341.326 136.232 341.565 136.369 341.769 136.602C341.973 136.829 342.132 137.163 342.246 137.604C342.355 138.04 342.409 138.597 342.409 139.275C342.409 139.991 342.352 140.609 342.238 141.131C342.125 141.647 341.933 142.045 341.663 142.325C341.392 142.605 341.027 142.745 340.568 142.745C340.113 142.745 339.75 142.61 339.48 142.339C339.205 142.064 339.008 141.669 338.89 141.152C338.771 140.635 338.712 140.01 338.712 139.275C338.712 138.554 338.776 137.964 338.904 137.505C339.032 137.045 339.24 136.706 339.53 136.488C339.814 136.27 340.2 136.166 340.688 136.175L340.688 141.01C340.812 140.986 340.925 140.92 341.03 140.811C341.134 140.697 341.219 140.524 341.286 140.292C341.347 140.055 341.378 139.739 341.378 139.346C341.378 138.938 341.35 138.604 341.293 138.344C341.236 138.078 341.155 137.919 341.051 137.867ZM339.743 139.346C339.743 139.848 339.797 140.232 339.906 140.498C340.015 140.759 340.124 140.913 340.233 140.96L340.233 137.832C340.11 137.865 339.999 137.998 339.899 138.23C339.795 138.462 339.743 138.834 339.743 139.346Z" fill="#ED73B2"/>
<path d="M342.402 147.897C342.402 148.409 342.331 148.864 342.189 149.262C342.042 149.66 341.831 149.975 341.556 150.208C341.281 150.435 340.949 150.549 340.56 150.549C340.153 150.549 339.812 150.435 339.537 150.208C339.262 149.975 339.055 149.66 338.918 149.262C338.781 148.864 338.712 148.409 338.712 147.897C338.712 147.47 338.757 147.086 338.847 146.745C338.932 146.404 339.058 146.112 339.224 145.87C339.385 145.629 339.579 145.444 339.807 145.316C340.034 145.188 340.286 145.124 340.56 145.124C340.835 145.124 341.087 145.188 341.314 145.316C341.537 145.444 341.731 145.629 341.897 145.87C342.058 146.112 342.184 146.404 342.274 146.745C342.359 147.086 342.402 147.47 342.402 147.897ZM341.321 147.257C341.321 146.897 341.3 146.567 341.257 146.269C341.21 145.965 341.132 145.724 341.023 145.543C340.914 145.359 340.76 145.266 340.56 145.266C340.357 145.266 340.2 145.359 340.091 145.543C339.982 145.724 339.906 145.965 339.864 146.269C339.821 146.567 339.8 146.897 339.8 147.257C339.8 147.74 339.864 148.115 339.992 148.38C340.115 148.646 340.304 148.778 340.56 148.778C340.726 148.778 340.866 148.719 340.98 148.601C341.094 148.482 341.179 148.309 341.236 148.082C341.293 147.854 341.321 147.579 341.321 147.257ZM337.396 145.266L337.396 143.56L342.302 143.56L342.302 145.167C342.193 145.186 342.018 145.207 341.776 145.231C341.53 145.254 341.255 145.266 340.951 145.266L337.396 145.266Z" fill="#ED73B2"/>
<path d="M336.991 151.191L338.058 151.191L338.058 152.997L336.991 152.997L336.991 151.191ZM338.818 152.947L338.818 151.24L342.302 151.24L342.302 152.947L338.818 152.947Z" fill="#ED73B2"/>
<path d="M338.819 157.074L338.819 155.368L342.302 155.368L342.302 157.074L338.819 157.074ZM340.134 153.533C340.134 153.841 340.162 154.123 340.219 154.379C340.276 154.635 340.345 154.853 340.425 155.033C340.501 155.214 340.577 155.349 340.653 155.439L340.312 155.453C340.212 155.439 340.096 155.401 339.963 155.339C339.826 155.278 339.686 155.195 339.544 155.09C339.397 154.986 339.262 154.858 339.139 154.706C339.011 154.555 338.909 154.382 338.833 154.187C338.752 153.988 338.712 153.77 338.712 153.533L340.134 153.533Z" fill="#ED73B2"/>
<path d="M342.409 160.298C342.409 160.725 342.366 161.109 342.281 161.45C342.191 161.791 342.065 162.083 341.904 162.325C341.738 162.566 341.541 162.751 341.314 162.879C341.086 163.007 340.835 163.071 340.56 163.071C340.285 163.071 340.036 163.007 339.814 162.879C339.586 162.751 339.392 162.566 339.231 162.325C339.065 162.083 338.939 161.791 338.854 161.45C338.764 161.109 338.719 160.725 338.719 160.298C338.719 159.786 338.792 159.331 338.939 158.933C339.081 158.53 339.29 158.215 339.565 157.987C339.84 157.76 340.172 157.646 340.56 157.646C340.968 157.646 341.309 157.76 341.584 157.987C341.859 158.215 342.065 158.53 342.203 158.933C342.34 159.331 342.409 159.786 342.409 160.298ZM341.321 160.938C341.321 160.616 341.293 160.341 341.236 160.113C341.179 159.886 341.096 159.713 340.987 159.594C340.873 159.476 340.731 159.417 340.56 159.417C340.309 159.417 340.119 159.549 339.991 159.815C339.863 160.08 339.799 160.455 339.799 160.938C339.799 161.298 339.821 161.63 339.863 161.933C339.906 162.232 339.984 162.474 340.098 162.659C340.207 162.839 340.361 162.929 340.56 162.929C340.759 162.929 340.916 162.839 341.029 162.659C341.139 162.474 341.214 162.232 341.257 161.933C341.3 161.63 341.321 161.298 341.321 160.938ZM338.818 164.635L338.818 163.028L340.169 162.929L343.724 162.929L343.724 164.635L338.818 164.635Z" fill="#ED73B2"/>
<path d="M332.605 51.1278C332.605 52.0849 332.527 52.8735 332.372 53.4936C332.211 54.1137 331.971 54.5721 331.654 54.8686C331.331 55.1652 330.927 55.3135 330.441 55.3135C329.99 55.3135 329.599 55.1685 329.268 54.8787C328.931 54.5889 328.669 54.1373 328.48 53.524C328.291 52.9039 328.197 52.1052 328.197 51.1278C328.197 50.9324 328.197 50.7335 328.197 50.5313C328.197 50.3291 328.197 50.1303 328.197 49.9348L328.197 46.0727L329.471 46.0727C329.491 46.5108 329.471 46.9557 329.41 47.4073C329.343 47.8521 329.255 48.2633 329.147 48.6407L328.995 48.7519C329.09 48.4486 329.211 48.1622 329.359 47.8926C329.508 47.6162 329.686 47.3938 329.895 47.2253C330.104 47.0568 330.354 46.9725 330.643 46.9725C331.061 46.9725 331.419 47.1174 331.715 47.4073C332.005 47.6904 332.227 48.1386 332.382 48.7519C332.531 49.3586 332.605 50.1505 332.605 51.1278ZM335.476 48.9743L335.203 48.9743C335.001 48.9743 334.88 49.0653 334.839 49.2473C334.805 49.4226 334.789 49.7023 334.789 50.0865L334.789 52.9072C334.789 53.3858 334.755 53.7733 334.688 54.0699C334.62 54.3597 334.529 54.5822 334.415 54.7372C334.3 54.8855 334.172 54.9866 334.03 55.0405C333.896 55.0877 333.761 55.1113 333.626 55.1113C333.336 55.1113 333.11 55.0034 332.949 54.7877C332.78 54.572 332.662 54.2418 332.595 53.7969C332.527 53.3521 332.494 52.7859 332.494 52.0984L332.605 51.1278C332.605 51.694 332.635 52.0883 332.696 52.3107C332.75 52.5332 332.861 52.6444 333.029 52.6444C333.124 52.6444 333.195 52.6006 333.242 52.5129C333.282 52.4253 333.302 52.3074 333.302 52.1591L333.302 49.1766C333.302 48.5093 333.35 47.9836 333.444 47.5994C333.545 47.2152 333.71 46.9456 333.939 46.7905C334.175 46.6288 334.495 46.5479 334.9 46.5479L335.476 46.5479L335.476 48.9743ZM331.28 51.1278C331.28 50.683 331.247 50.3258 331.179 50.0562C331.105 49.7798 331.007 49.581 330.886 49.4596C330.765 49.3383 330.63 49.2777 330.482 49.2777C330.313 49.2777 330.168 49.3383 330.047 49.4596C329.926 49.581 329.831 49.7764 329.764 50.046C329.696 50.3156 329.663 50.6762 329.663 51.1278C329.663 51.5727 329.696 51.9333 329.764 52.2096C329.831 52.486 329.926 52.6882 330.047 52.8162C330.168 52.9443 330.313 53.0083 330.482 53.0083C330.63 53.0083 330.765 52.9477 330.886 52.8264C331.007 52.6983 331.105 52.4961 331.179 52.2197C331.247 51.9434 331.28 51.5794 331.28 51.1278Z" fill="#3A0792"/>
<path d="M333.444 62.2943C333.444 63.0222 333.343 63.6693 333.141 64.2355C332.932 64.8017 332.632 65.2499 332.241 65.5801C331.85 65.9037 331.378 66.0654 330.825 66.0654C330.246 66.0654 329.76 65.9037 329.37 65.5801C328.979 65.2499 328.685 64.8017 328.49 64.2355C328.295 63.6693 328.197 63.0222 328.197 62.2943C328.197 61.4855 328.308 60.7879 328.53 60.2015C328.746 59.6084 329.053 59.1534 329.45 58.8366C329.841 58.5131 330.3 58.3513 330.825 58.3513C331.216 58.3513 331.574 58.4423 331.897 58.6243C332.214 58.8063 332.49 59.0692 332.726 59.4129C332.955 59.7567 333.134 60.1712 333.262 60.6565C333.383 61.1418 333.444 61.6877 333.444 62.2943ZM331.907 61.3844C331.907 60.8721 331.877 60.4037 331.816 59.9791C331.749 59.5477 331.638 59.204 331.483 58.9478C331.328 58.685 331.109 58.5535 330.825 58.5535C330.536 58.5535 330.313 58.685 330.158 58.9478C330.003 59.204 329.895 59.5477 329.835 59.9791C329.774 60.4037 329.744 60.8721 329.744 61.3844C329.744 62.0719 329.835 62.6044 330.017 62.9818C330.192 63.3593 330.461 63.548 330.825 63.548C331.061 63.548 331.26 63.4637 331.422 63.2952C331.584 63.1267 331.705 62.8807 331.786 62.5572C331.867 62.2336 331.907 61.8427 331.907 61.3844ZM328.348 58.5535L328.348 56.1271L333.302 56.1271L333.302 58.412C333.302 58.412 333.225 58.4255 333.07 58.4524C332.915 58.4726 332.692 58.4962 332.403 58.5232C332.113 58.5434 331.772 58.5535 331.381 58.5535L328.348 58.5535Z" fill="#3A0792"/>
<path d="M326.326 69.4558L326.326 67.0294L333.302 67.0294L333.302 69.4558L326.326 69.4558Z" fill="#3A0792"/>
<path d="M326.832 70.5672L328.752 70.5672L328.752 78.2307L329.612 78.2307L329.612 71.9624L331.331 71.9624L331.331 78.2307L333.302 78.2307L333.302 80.7583L326.832 80.7583L326.832 70.5672Z" fill="#3A0792"/>
<path d="M331.523 87.3576L331.523 84.9716C331.914 85.0322 332.254 85.2277 332.544 85.558C332.834 85.8815 333.06 86.3567 333.222 86.9835C333.377 87.6036 333.454 88.3956 333.454 89.3594C333.454 90.3772 333.373 91.2568 333.211 91.9982C333.05 92.7329 332.777 93.299 332.393 93.6967C332.008 94.0944 331.489 94.2932 330.836 94.2932C330.188 94.2932 329.673 94.1011 329.289 93.7169C328.898 93.326 328.618 92.7632 328.45 92.0285C328.281 91.2938 328.197 90.4041 328.197 89.3594C328.197 88.3349 328.288 87.4958 328.47 86.842C328.652 86.1882 328.948 85.7063 329.359 85.3962C329.764 85.0862 330.313 84.9379 331.007 84.9514L331.007 91.8263C331.183 91.7926 331.344 91.6983 331.493 91.5432C331.641 91.3815 331.762 91.1355 331.857 90.8052C331.944 90.4682 331.988 90.02 331.988 89.4605C331.988 88.8809 331.948 88.4057 331.867 88.035C331.786 87.6575 331.671 87.4317 331.523 87.3576ZM329.663 89.4605C329.663 90.175 329.74 90.7209 329.895 91.0984C330.05 91.4691 330.205 91.6881 330.36 91.7555L330.36 87.307C330.185 87.3542 330.027 87.5429 329.885 87.8732C329.737 88.2035 329.663 88.7326 329.663 89.4605Z" fill="#3A0792"/>
<path d="M333.444 101.62C333.444 102.347 333.343 102.995 333.14 103.561C332.932 104.127 332.632 104.575 332.241 104.905C331.85 105.229 331.378 105.391 330.825 105.391C330.246 105.391 329.76 105.229 329.369 104.905C328.978 104.575 328.685 104.127 328.49 103.561C328.294 102.995 328.197 102.347 328.197 101.62C328.197 101.013 328.261 100.467 328.389 99.9817C328.51 99.4964 328.689 99.0818 328.925 98.7381C329.154 98.3944 329.43 98.1315 329.754 97.9495C330.077 97.7675 330.434 97.6765 330.825 97.6765C331.216 97.6765 331.573 97.7675 331.897 97.9495C332.214 98.1315 332.49 98.3944 332.726 98.7381C332.955 99.0818 333.134 99.4964 333.262 99.9817C333.383 100.467 333.444 101.013 333.444 101.62ZM331.907 100.71C331.907 100.197 331.877 99.7289 331.816 99.3043C331.749 98.8729 331.637 98.5292 331.482 98.273C331.327 98.0102 331.108 97.8787 330.825 97.8787C330.535 97.8787 330.313 98.0102 330.158 98.273C330.003 98.5292 329.895 98.8729 329.834 99.3043C329.774 99.7289 329.743 100.197 329.743 100.71C329.743 101.397 329.834 101.93 330.016 102.307C330.192 102.684 330.461 102.873 330.825 102.873C331.061 102.873 331.26 102.789 331.422 102.62C331.583 102.452 331.705 102.206 331.786 101.882C331.867 101.559 331.907 101.168 331.907 100.71ZM326.326 97.8787L326.326 95.4523L333.302 95.4523L333.302 97.7372C333.147 97.7641 332.898 97.7945 332.554 97.8282C332.204 97.8619 331.813 97.8787 331.381 97.8787L326.326 97.8787Z" fill="#3A0792"/>
<path d="M325.75 106.303L327.267 106.303L327.267 108.871L325.75 108.871L325.75 106.303ZM328.348 108.8L328.348 106.374L333.302 106.374L333.302 108.8L328.348 108.8Z" fill="#3A0792"/>
<path d="M328.348 114.669L328.348 112.243L333.302 112.243L333.302 114.669L328.348 114.669ZM330.219 109.634C330.219 110.072 330.259 110.473 330.34 110.837C330.421 111.201 330.519 111.511 330.633 111.768C330.741 112.024 330.849 112.216 330.957 112.344L330.472 112.364C330.33 112.344 330.165 112.29 329.976 112.202C329.781 112.115 329.582 111.997 329.38 111.848C329.171 111.7 328.979 111.518 328.803 111.302C328.621 111.087 328.476 110.841 328.369 110.564C328.254 110.281 328.197 109.971 328.197 109.634L330.219 109.634Z" fill="#3A0792"/>
<path d="M331.634 123.968L329.865 123.968L329.865 118.923C329.865 118.721 329.834 118.552 329.774 118.418C329.706 118.276 329.568 118.205 329.359 118.205C329.143 118.205 329.005 118.276 328.945 118.418C328.884 118.552 328.854 118.721 328.854 118.923L328.854 123.806L333.302 123.806L333.302 126.334L326.832 126.334L326.832 119.317C326.832 118.812 326.869 118.34 326.943 117.902C327.01 117.457 327.135 117.07 327.317 116.739C327.499 116.409 327.755 116.15 328.085 115.961C328.415 115.772 328.84 115.678 329.359 115.678C329.878 115.678 330.289 115.772 330.593 115.961C330.896 116.15 331.122 116.409 331.27 116.739C331.418 117.07 331.516 117.457 331.563 117.902C331.61 118.34 331.634 118.812 331.634 119.317L331.634 123.968Z" fill="#3A0792"/>
<path d="M326.326 133.188L326.326 130.761L333.302 130.761L333.302 133.188L326.326 133.188Z" fill="#3A0792"/>
<path d="M333.444 140.422C333.444 141.149 333.343 141.797 333.141 142.363C332.932 142.929 332.632 143.377 332.241 143.707C331.85 144.031 331.378 144.193 330.825 144.193C330.246 144.193 329.76 144.031 329.37 143.707C328.979 143.377 328.685 142.929 328.49 142.363C328.295 141.797 328.197 141.149 328.197 140.422C328.197 139.613 328.308 138.915 328.53 138.329C328.746 137.736 329.053 137.281 329.45 136.964C329.841 136.64 330.3 136.479 330.825 136.479C331.216 136.479 331.574 136.57 331.897 136.751C332.214 136.933 332.49 137.196 332.726 137.54C332.955 137.884 333.134 138.298 333.262 138.784C333.383 139.269 333.444 139.815 333.444 140.422ZM331.907 139.512C331.907 138.999 331.877 138.531 331.816 138.106C331.749 137.675 331.638 137.331 331.483 137.075C331.328 136.812 331.109 136.681 330.825 136.681C330.536 136.681 330.313 136.812 330.158 137.075C330.003 137.331 329.895 137.675 329.835 138.106C329.774 138.531 329.744 138.999 329.744 139.512C329.744 140.199 329.835 140.732 330.017 141.109C330.192 141.486 330.461 141.675 330.825 141.675C331.061 141.675 331.26 141.591 331.422 141.422C331.584 141.254 331.705 141.008 331.786 140.684C331.867 140.361 331.907 139.97 331.907 139.512ZM328.348 136.681L328.348 134.254L333.302 134.254L333.302 136.539C333.302 136.539 333.225 136.553 333.07 136.58C332.915 136.6 332.692 136.623 332.403 136.65C332.113 136.671 331.772 136.681 331.381 136.681L328.348 136.681Z" fill="#3A0792"/>
<path d="M328.348 154.182L328.348 151.755L333.302 151.755L333.302 154.182L328.348 154.182ZM328.197 148.116C328.197 147.718 328.241 147.334 328.328 146.963C328.409 146.592 328.551 146.262 328.753 145.972C328.955 145.676 329.231 145.44 329.582 145.265C329.932 145.089 330.374 145.002 330.906 145.002L333.302 145.002L333.302 147.428L331.21 147.428C330.704 147.428 330.347 147.56 330.138 147.823C329.922 148.085 329.814 148.561 329.814 149.248C329.814 149.612 329.855 149.966 329.936 150.31C330.017 150.647 330.114 150.95 330.229 151.22C330.337 151.489 330.445 151.702 330.552 151.857L330.168 151.877C330.047 151.85 329.878 151.759 329.663 151.604C329.44 151.442 329.218 151.209 328.995 150.906C328.773 150.603 328.584 150.222 328.429 149.764C328.274 149.299 328.197 148.749 328.197 148.116Z" fill="#3A0792"/>
<path d="M325.75 155.196L327.267 155.196L327.267 157.764L325.75 157.764L325.75 155.196ZM328.348 157.693L328.348 155.266L333.302 155.266L333.302 157.693L328.348 157.693Z" fill="#3A0792"/>
<path d="M332.605 163.574C332.605 164.531 332.527 165.32 332.372 165.94C332.211 166.56 331.971 167.019 331.654 167.315C331.331 167.612 330.927 167.76 330.441 167.76C329.99 167.76 329.599 167.615 329.268 167.325C328.931 167.035 328.669 166.584 328.48 165.97C328.291 165.35 328.197 164.552 328.197 163.574C328.197 163.379 328.197 163.18 328.197 162.978C328.197 162.776 328.197 162.577 328.197 162.381L328.197 158.519L329.471 158.519C329.491 158.957 329.471 159.402 329.41 159.854C329.343 160.299 329.255 160.71 329.147 161.087L328.995 161.198C329.09 160.895 329.211 160.609 329.359 160.339C329.508 160.063 329.686 159.84 329.895 159.672C330.104 159.503 330.354 159.419 330.643 159.419C331.061 159.419 331.419 159.564 331.715 159.854C332.005 160.137 332.227 160.585 332.382 161.198C332.531 161.805 332.605 162.597 332.605 163.574ZM335.476 161.421L335.203 161.421C335.001 161.421 334.88 161.512 334.839 161.694C334.805 161.869 334.789 162.149 334.789 162.533L334.789 165.354C334.789 165.832 334.755 166.22 334.688 166.516C334.62 166.806 334.529 167.029 334.415 167.184C334.3 167.332 334.172 167.433 334.03 167.487C333.896 167.534 333.761 167.558 333.626 167.558C333.336 167.558 333.11 167.45 332.949 167.234C332.78 167.019 332.662 166.688 332.595 166.243C332.527 165.799 332.494 165.232 332.494 164.545L332.605 163.574C332.605 164.141 332.635 164.535 332.696 164.757C332.75 164.98 332.861 165.091 333.029 165.091C333.124 165.091 333.195 165.047 333.242 164.959C333.282 164.872 333.302 164.754 333.302 164.606L333.302 161.623C333.302 160.956 333.35 160.43 333.444 160.046C333.545 159.662 333.71 159.392 333.939 159.237C334.175 159.075 334.495 158.994 334.9 158.994L335.476 158.994L335.476 161.421ZM331.28 163.574C331.28 163.13 331.247 162.772 331.179 162.503C331.105 162.226 331.007 162.028 330.886 161.906C330.765 161.785 330.63 161.724 330.482 161.724C330.313 161.724 330.168 161.785 330.047 161.906C329.926 162.028 329.831 162.223 329.764 162.493C329.696 162.762 329.663 163.123 329.663 163.574C329.663 164.019 329.696 164.38 329.764 164.656C329.831 164.933 329.926 165.135 330.047 165.263C330.168 165.391 330.313 165.455 330.482 165.455C330.63 165.455 330.765 165.394 330.886 165.273C331.007 165.145 331.105 164.943 331.179 164.666C331.247 164.39 331.28 164.026 331.28 163.574Z" fill="#3A0792"/>
<path d="M325.75 168.673L327.267 168.673L327.267 171.241L325.75 171.241L325.75 168.673ZM328.348 171.17L328.348 168.743L333.302 168.743L333.302 171.17L328.348 171.17Z" fill="#3A0792"/>
<path d="M328.348 177.039L328.348 174.612L333.302 174.612L333.302 177.039L328.348 177.039ZM330.219 172.004C330.219 172.442 330.259 172.843 330.34 173.207C330.421 173.571 330.519 173.881 330.633 174.137C330.741 174.393 330.849 174.585 330.957 174.713L330.472 174.733C330.33 174.713 330.165 174.659 329.976 174.572C329.781 174.484 329.582 174.366 329.38 174.218C329.171 174.07 328.979 173.888 328.803 173.672C328.621 173.456 328.476 173.21 328.369 172.934C328.254 172.651 328.197 172.341 328.197 172.004L330.219 172.004Z" fill="#3A0792"/>
<path d="M333.504 184.218C333.504 185.687 333.376 186.87 333.12 187.766C332.857 188.663 332.473 189.317 331.968 189.728C331.455 190.132 330.822 190.334 330.067 190.334C329.312 190.334 328.682 190.132 328.176 189.728C327.664 189.317 327.28 188.663 327.024 187.766C326.761 186.87 326.629 185.687 326.629 184.218C326.629 182.748 326.761 181.566 327.024 180.669C327.28 179.773 327.664 179.122 328.176 178.718C328.682 178.307 329.312 178.101 330.067 178.101C330.822 178.101 331.455 178.307 331.968 178.718C332.473 179.122 332.857 179.773 333.12 180.669C333.376 181.566 333.504 182.748 333.504 184.218ZM331.583 184.218C331.583 183.524 331.543 182.924 331.462 182.418C331.374 181.913 331.223 181.522 331.007 181.245C330.785 180.969 330.471 180.831 330.067 180.831C329.662 180.831 329.352 180.969 329.137 181.245C328.914 181.522 328.763 181.913 328.682 182.418C328.594 182.924 328.55 183.524 328.55 184.218C328.55 184.912 328.594 185.522 328.682 186.048C328.763 186.567 328.914 186.975 329.137 187.271C329.352 187.561 329.662 187.706 330.067 187.706C330.471 187.706 330.785 187.561 331.007 187.271C331.223 186.975 331.374 186.567 331.462 186.048C331.543 185.522 331.583 184.912 331.583 184.218Z" fill="#3A0792"/>
</g>
<defs>
<clipPath id="clip0_2007_2044">
<rect width="349" height="245" fill="white"/>
</clipPath>
<clipPath id="clip1_2007_2044">
<rect x="8.49121" y="30.8889" width="8" height="206" rx="4" fill="white"/>
</clipPath>
<clipPath id="clip2_2007_2044">
<rect x="174.241" y="30.8889" width="8" height="206" rx="4" fill="white"/>
</clipPath>
<clipPath id="clip3_2007_2044">
<rect x="18.2412" y="27.8889" width="8" height="206" rx="4" fill="white"/>
</clipPath>
<clipPath id="clip4_2007_2044">
<rect x="183.991" y="28.8889" width="8" height="206" rx="4" fill="white"/>
</clipPath>
<clipPath id="clip5_2007_2044">
<rect width="8" height="206" rx="4" transform="matrix(-1 0 0 1 172.491 27.8889)" fill="white"/>
</clipPath>
<clipPath id="clip6_2007_2044">
<rect x="27.9912" y="19.8889" width="8" height="206" rx="4" fill="white"/>
</clipPath>
<clipPath id="clip7_2007_2044">
<rect x="193.741" y="22.8889" width="8" height="206" rx="4" fill="white"/>
</clipPath>
<clipPath id="clip8_2007_2044">
<rect width="8" height="206" rx="4" transform="matrix(-1 0 0 1 162.741 19.8889)" fill="white"/>
</clipPath>
<clipPath id="clip9_2007_2044">
<rect x="37.7412" y="12.8889" width="8" height="206" rx="4" fill="white"/>
</clipPath>
<clipPath id="clip10_2007_2044">
<rect x="203.491" y="14.8889" width="8" height="206" rx="4" fill="white"/>
</clipPath>
<clipPath id="clip11_2007_2044">
<rect width="8" height="206" rx="4" transform="matrix(-1 0 0 1 152.991 12.8889)" fill="white"/>
</clipPath>
<clipPath id="clip12_2007_2044">
<rect width="8" height="206" rx="4" transform="matrix(-1 0 0 1 318.741 10.8889)" fill="white"/>
</clipPath>
<clipPath id="clip13_2007_2044">
<rect x="47.4912" y="8.88892" width="8" height="206" rx="4" fill="white"/>
</clipPath>
<clipPath id="clip14_2007_2044">
<rect x="213.241" y="9.88892" width="8" height="206" rx="4" fill="white"/>
</clipPath>
<clipPath id="clip15_2007_2044">
<rect width="8" height="206" rx="4" transform="matrix(-1 0 0 1 143.241 9.88892)" fill="white"/>
</clipPath>
<clipPath id="clip16_2007_2044">
<rect width="8" height="206" rx="4" transform="matrix(-1 0 0 1 308.991 8.88892)" fill="white"/>
</clipPath>
<clipPath id="clip17_2007_2044">
<rect width="8" height="206" rx="4" transform="matrix(-1 0 0 1 94.4912 28.8889)" fill="white"/>
</clipPath>
<clipPath id="clip18_2007_2044">
<rect width="8" height="206" rx="4" transform="matrix(-1 0 0 1 260.241 28.8889)" fill="white"/>
</clipPath>
<clipPath id="clip19_2007_2044">
<rect x="96.2412" y="29.8889" width="8" height="206" rx="4" fill="white"/>
</clipPath>
<clipPath id="clip20_2007_2044">
<rect x="261.991" y="30.8889" width="8" height="206" rx="4" fill="white"/>
</clipPath>
<clipPath id="clip21_2007_2044">
<rect width="8" height="206" rx="4" transform="matrix(-1 0 0 1 84.7412 24.8889)" fill="white"/>
</clipPath>
<clipPath id="clip22_2007_2044">
<rect width="8" height="206" rx="4" transform="matrix(-1 0 0 1 250.491 21.8889)" fill="white"/>
</clipPath>
<clipPath id="clip23_2007_2044">
<rect x="105.991" y="25.8889" width="8" height="206" rx="4" fill="white"/>
</clipPath>
<clipPath id="clip24_2007_2044">
<rect x="271.741" y="27.8889" width="8" height="206" rx="4" fill="white"/>
</clipPath>
<clipPath id="clip25_2007_2044">
<rect width="8" height="206" rx="4" transform="matrix(-1 0 0 1 74.9912 16.8889)" fill="white"/>
</clipPath>
<clipPath id="clip26_2007_2044">
<rect width="8" height="206" rx="4" transform="matrix(-1 0 0 1 240.741 13.8889)" fill="white"/>
</clipPath>
<clipPath id="clip27_2007_2044">
<rect x="115.741" y="18.8889" width="8" height="206" rx="4" fill="white"/>
</clipPath>
<clipPath id="clip28_2007_2044">
<rect x="281.491" y="19.8889" width="8" height="206" rx="4" fill="white"/>
</clipPath>
<clipPath id="clip29_2007_2044">
<rect width="8" height="206" rx="4" transform="matrix(-1 0 0 1 65.2412 9.88892)" fill="white"/>
</clipPath>
<clipPath id="clip30_2007_2044">
<rect width="8" height="206" rx="4" transform="matrix(-1 0 0 1 230.991 9.88892)" fill="white"/>
</clipPath>
<clipPath id="clip31_2007_2044">
<rect x="125.491" y="10.8889" width="8" height="206" rx="4" fill="white"/>
</clipPath>
<clipPath id="clip32_2007_2044">
<rect x="291.241" y="12.8889" width="8" height="206" rx="4" fill="white"/>
</clipPath>
<clipPath id="clip33_2007_2044">
<rect width="311" height="229" fill="white" transform="translate(8 8)"/>
</clipPath>
<clipPath id="clip34_2007_2044">
<rect x="8.49121" y="30.8889" width="8" height="206" rx="4" fill="white"/>
</clipPath>
<clipPath id="clip35_2007_2044">
<rect x="174.241" y="30.8889" width="8" height="206" rx="4" fill="white"/>
</clipPath>
<clipPath id="clip36_2007_2044">
<rect x="18.2412" y="27.8889" width="8" height="206" rx="4" fill="white"/>
</clipPath>
<clipPath id="clip37_2007_2044">
<rect x="183.991" y="28.8889" width="8" height="206" rx="4" fill="white"/>
</clipPath>
<clipPath id="clip38_2007_2044">
<rect width="8" height="206" rx="4" transform="matrix(-1 0 0 1 172.491 27.8889)" fill="white"/>
</clipPath>
<clipPath id="clip39_2007_2044">
<rect x="27.9912" y="19.8889" width="8" height="206" rx="4" fill="white"/>
</clipPath>
<clipPath id="clip40_2007_2044">
<rect x="193.741" y="22.8889" width="8" height="206" rx="4" fill="white"/>
</clipPath>
<clipPath id="clip41_2007_2044">
<rect width="8" height="206" rx="4" transform="matrix(-1 0 0 1 162.741 19.8889)" fill="white"/>
</clipPath>
<clipPath id="clip42_2007_2044">
<rect x="37.7412" y="12.8889" width="8" height="206" rx="4" fill="white"/>
</clipPath>
<clipPath id="clip43_2007_2044">
<rect x="203.491" y="14.8889" width="8" height="206" rx="4" fill="white"/>
</clipPath>
<clipPath id="clip44_2007_2044">
<rect width="8" height="206" rx="4" transform="matrix(-1 0 0 1 152.991 12.8889)" fill="white"/>
</clipPath>
<clipPath id="clip45_2007_2044">
<rect width="8" height="206" rx="4" transform="matrix(-1 0 0 1 318.741 10.8889)" fill="white"/>
</clipPath>
<clipPath id="clip46_2007_2044">
<rect x="47.4912" y="8.88892" width="8" height="206" rx="4" fill="white"/>
</clipPath>
<clipPath id="clip47_2007_2044">
<rect x="213.241" y="9.88892" width="8" height="206" rx="4" fill="white"/>
</clipPath>
<clipPath id="clip48_2007_2044">
<rect width="8" height="206" rx="4" transform="matrix(-1 0 0 1 143.241 9.88892)" fill="white"/>
</clipPath>
<clipPath id="clip49_2007_2044">
<rect width="8" height="206" rx="4" transform="matrix(-1 0 0 1 308.991 8.88892)" fill="white"/>
</clipPath>
<clipPath id="clip50_2007_2044">
<rect width="8" height="206" rx="4" transform="matrix(-1 0 0 1 94.4912 28.8889)" fill="white"/>
</clipPath>
<clipPath id="clip51_2007_2044">
<rect width="8" height="206" rx="4" transform="matrix(-1 0 0 1 260.241 28.8889)" fill="white"/>
</clipPath>
<clipPath id="clip52_2007_2044">
<rect x="96.2412" y="29.8889" width="8" height="206" rx="4" fill="white"/>
</clipPath>
<clipPath id="clip53_2007_2044">
<rect x="261.991" y="30.8889" width="8" height="206" rx="4" fill="white"/>
</clipPath>
<clipPath id="clip54_2007_2044">
<rect width="8" height="206" rx="4" transform="matrix(-1 0 0 1 84.7412 24.8889)" fill="white"/>
</clipPath>
<clipPath id="clip55_2007_2044">
<rect width="8" height="206" rx="4" transform="matrix(-1 0 0 1 250.491 21.8889)" fill="white"/>
</clipPath>
<clipPath id="clip56_2007_2044">
<rect x="105.991" y="25.8889" width="8" height="206" rx="4" fill="white"/>
</clipPath>
<clipPath id="clip57_2007_2044">
<rect x="271.741" y="27.8889" width="8" height="206" rx="4" fill="white"/>
</clipPath>
<clipPath id="clip58_2007_2044">
<rect width="8" height="206" rx="4" transform="matrix(-1 0 0 1 74.9912 16.8889)" fill="white"/>
</clipPath>
<clipPath id="clip59_2007_2044">
<rect width="8" height="206" rx="4" transform="matrix(-1 0 0 1 240.741 13.8889)" fill="white"/>
</clipPath>
<clipPath id="clip60_2007_2044">
<rect x="115.741" y="18.8889" width="8" height="206" rx="4" fill="white"/>
</clipPath>
<clipPath id="clip61_2007_2044">
<rect x="281.491" y="19.8889" width="8" height="206" rx="4" fill="white"/>
</clipPath>
<clipPath id="clip62_2007_2044">
<rect width="8" height="206" rx="4" transform="matrix(-1 0 0 1 65.2412 9.88892)" fill="white"/>
</clipPath>
<clipPath id="clip63_2007_2044">
<rect width="8" height="206" rx="4" transform="matrix(-1 0 0 1 230.991 9.88892)" fill="white"/>
</clipPath>
<clipPath id="clip64_2007_2044">
<rect x="125.491" y="10.8889" width="8" height="206" rx="4" fill="white"/>
</clipPath>
<clipPath id="clip65_2007_2044">
<rect x="291.241" y="12.8889" width="8" height="206" rx="4" fill="white"/>
</clipPath>
</defs>
</svg>
