<svg width="259" height="204" viewBox="0 0 259 204" fill="none" xmlns="http://www.w3.org/2000/svg">
<path d="M12.5 182.146V20.2386C12.5 19.7996 12.7863 19.4119 13.2059 19.2828L25.5 15.5L38.5 13.5L51.5 12.5L64.5 13.5L77.5 15.5L90.5 19.5L103.5 24.3148L103.908 24.4658C103.969 24.4886 104.033 24.5052 104.097 24.5155L116.5 26.5L129.5 27.5L142.5 26.5L155.5 23.5L168.5 19.5L181.5 15.5L194.5 13.5L207.5 12.5L220.5 13.5L233.5 15.5L245.794 19.2828C246.214 19.4119 246.5 19.7996 246.5 20.2386V182.146C246.5 182.819 245.849 183.3 245.206 183.102L233.5 179.5L220.5 177.5L207.5 176.5L194.5 177.5L181.5 179.5L168.5 183.5L155.5 187.5L142.5 190.5L129.5 191.5L116.5 190.5L103.5 187.5L90.5 183.5L77.5 179.5L64.5 177.5L51.5 176.5L38.5 177.5L25.5 179.5L13.7941 183.102C13.151 183.3 12.5 182.819 12.5 182.146Z" fill="white"/>
<path d="M25.5 15.5V179.5M25.5 15.5L13.2059 19.2828C12.7863 19.4119 12.5 19.7996 12.5 20.2386V182.146C12.5 182.819 13.151 183.3 13.7941 183.102L25.5 179.5M25.5 15.5L38.5 13.5M25.5 179.5L38.5 177.5M38.5 13.5V177.5M38.5 13.5L51.5 12.5M38.5 177.5L51.5 176.5M51.5 12.5V176.5M51.5 12.5L64.5 13.5M51.5 176.5L64.5 177.5M64.5 13.5V177.5M64.5 13.5L77.5 15.5M64.5 177.5L77.5 179.5M77.5 15.5V179.5M77.5 15.5L90.5 19.5M77.5 179.5L90.5 183.5M90.5 19.5V183.5M90.5 19.5L103.908 24.4658C103.969 24.4886 104.033 24.5052 104.097 24.5155L116.5 26.5M90.5 183.5L103.5 187.5M103.5 23.5V187.5M103.5 187.5L116.5 190.5M116.5 26.5V190.5M116.5 26.5L129.5 27.5M116.5 190.5L129.5 191.5M129.5 27.5V191.5M129.5 27.5L142.5 26.5M129.5 191.5L142.5 190.5M142.5 26.5V190.5M142.5 26.5L155.5 23.5M142.5 190.5L155.5 187.5M155.5 23.5V187.5M155.5 23.5L168.5 19.5M155.5 187.5L168.5 183.5M168.5 19.5V183.5M168.5 19.5L181.5 15.5M168.5 183.5L181.5 179.5M181.5 15.5V179.5M181.5 15.5L194.5 13.5M181.5 179.5L194.5 177.5M194.5 13.5V177.5M194.5 13.5L207.5 12.5M194.5 177.5L207.5 176.5M207.5 12.5V176.5M207.5 12.5L220.5 13.5M207.5 176.5L220.5 177.5M220.5 13.5V177.5M220.5 13.5L233.5 15.5M220.5 177.5C225.577 178.281 228.423 178.719 233.5 179.5M233.5 15.5V179.5M233.5 15.5L245.794 19.2828C246.214 19.4119 246.5 19.7996 246.5 20.2386V182.146C246.5 182.819 245.849 183.3 245.206 183.102L233.5 179.5" stroke="white" stroke-width="25" stroke-linecap="round"/>
<mask id="mask0_11_1556" style="mask-type:alpha" maskUnits="userSpaceOnUse" x="8" y="15" width="9" height="174">
<rect x="8" y="15.1749" width="9" height="173" rx="4.5" fill="#D9D9D9"/>
</mask>
<g mask="url(#mask0_11_1556)">
<g clip-path="url(#clip0_11_1556)">
<rect x="8" y="15.1749" width="225" height="28.8333" fill="#F90000"/>
<rect x="8" y="44.0083" width="225" height="28.8333" fill="#FF8400"/>
<rect x="8" y="72.8416" width="225" height="28.8333" fill="#FFEB00"/>
<rect x="8" y="101.675" width="225" height="28.8333" fill="#008200"/>
<rect x="8" y="130.508" width="225" height="28.8333" fill="#004EFF"/>
<rect x="8" y="159.342" width="225" height="28.8333" fill="#7E2286"/>
<path d="M8 -11.2224L120.897 101.675L8 214.572V-11.2224Z" fill="black"/>
<path d="M8 2.16382L107.511 101.675L8 201.186V2.16382Z" fill="#693607"/>
<path d="M8 15.8812L93.7937 101.675L8 187.469V15.8812Z" fill="#00D2FF"/>
<path d="M8 30.0074L79.6675 101.675L8 173.343V30.0074Z" fill="#FFA5B8"/>
<path d="M8 42.8583L66.8167 101.675L8 160.492V42.8583Z" fill="white"/>
</g>
</g>
<mask id="mask1_11_1556" style="mask-type:alpha" maskUnits="userSpaceOnUse" x="21" y="11" width="9" height="174">
<rect x="21" y="11.1749" width="9" height="173" rx="4.5" fill="#D9D9D9"/>
</mask>
<g mask="url(#mask1_11_1556)">
<g clip-path="url(#clip1_11_1556)">
<rect x="9" y="11.1749" width="225" height="28.8333" fill="#F90000"/>
<rect x="9" y="40.0083" width="225" height="28.8333" fill="#FF8400"/>
<rect x="9" y="68.8416" width="225" height="28.8333" fill="#FFEB00"/>
<rect x="9" y="97.6749" width="225" height="28.8333" fill="#008200"/>
<rect x="9" y="126.508" width="225" height="28.8333" fill="#004EFF"/>
<rect x="9" y="155.342" width="225" height="28.8333" fill="#7E2286"/>
<path d="M9 -15.2224L121.897 97.6749L9 210.572V-15.2224Z" fill="black"/>
<path d="M9 -1.83618L108.511 97.6748L9 197.186V-1.83618Z" fill="#693607"/>
<path d="M9 11.8812L94.7937 97.6749L9 183.469V11.8812Z" fill="#00D2FF"/>
<path d="M9 26.0074L80.6675 97.675L9 169.343V26.0074Z" fill="#FFA5B8"/>
<path d="M9 38.8583L67.8167 97.675L9 156.492V38.8583Z" fill="white"/>
</g>
</g>
<mask id="mask2_11_1556" style="mask-type:alpha" maskUnits="userSpaceOnUse" x="34" y="9" width="9" height="174">
<rect x="34" y="9.17493" width="9" height="173" rx="4.5" fill="#D9D9D9"/>
</mask>
<g mask="url(#mask2_11_1556)">
<g clip-path="url(#clip2_11_1556)">
<rect x="10" y="9.17493" width="225" height="28.8333" fill="#F90000"/>
<rect x="10" y="38.0083" width="225" height="28.8333" fill="#FF8400"/>
<rect x="10" y="66.8416" width="225" height="28.8333" fill="#FFEB00"/>
<rect x="10" y="95.6749" width="225" height="28.8333" fill="#008200"/>
<rect x="10" y="124.508" width="225" height="28.8333" fill="#004EFF"/>
<rect x="10" y="153.342" width="225" height="28.8333" fill="#7E2286"/>
<path d="M10 -17.2224L122.897 95.6749L10 208.572V-17.2224Z" fill="black"/>
<path d="M10 -3.83618L109.511 95.6748L10 195.186V-3.83618Z" fill="#693607"/>
<path d="M10 9.88123L95.7937 95.6749L10 181.469V9.88123Z" fill="#00D2FF"/>
<path d="M10 24.0074L81.6675 95.675L10 167.343V24.0074Z" fill="#FFA5B8"/>
<path d="M10 36.8583L68.8167 95.675L10 154.492V36.8583Z" fill="white"/>
</g>
</g>
<mask id="mask3_11_1556" style="mask-type:alpha" maskUnits="userSpaceOnUse" x="47" y="8" width="9" height="174">
<rect x="47" y="8.17493" width="9" height="173" rx="4.5" fill="#D9D9D9"/>
</mask>
<g mask="url(#mask3_11_1556)">
<g clip-path="url(#clip3_11_1556)">
<rect x="11" y="8.17493" width="225" height="28.8333" fill="#F90000"/>
<rect x="11" y="37.0083" width="225" height="28.8333" fill="#FF8400"/>
<rect x="11" y="65.8416" width="225" height="28.8333" fill="#FFEB00"/>
<rect x="11" y="94.6749" width="225" height="28.8333" fill="#008200"/>
<rect x="11" y="123.508" width="225" height="28.8333" fill="#004EFF"/>
<rect x="11" y="152.342" width="225" height="28.8333" fill="#7E2286"/>
<path d="M11 -18.2224L123.897 94.6749L11 207.572V-18.2224Z" fill="black"/>
<path d="M11 -4.83618L110.511 94.6748L11 194.186V-4.83618Z" fill="#693607"/>
<path d="M11 8.88123L96.7937 94.6749L11 180.469V8.88123Z" fill="#00D2FF"/>
<path d="M11 23.0074L82.6675 94.675L11 166.343V23.0074Z" fill="#FFA5B8"/>
<path d="M11 35.8583L69.8167 94.675L11 153.492V35.8583Z" fill="white"/>
</g>
</g>
<mask id="mask4_11_1556" style="mask-type:alpha" maskUnits="userSpaceOnUse" x="60" y="9" width="9" height="174">
<rect x="60" y="9.17493" width="9" height="173" rx="4.5" fill="#D9D9D9"/>
</mask>
<g mask="url(#mask4_11_1556)">
<g clip-path="url(#clip4_11_1556)">
<rect x="12" y="9.17493" width="225" height="28.8333" fill="#F90000"/>
<rect x="12" y="38.0083" width="225" height="28.8333" fill="#FF8400"/>
<rect x="12" y="66.8416" width="225" height="28.8333" fill="#FFEB00"/>
<rect x="12" y="95.6749" width="225" height="28.8333" fill="#008200"/>
<rect x="12" y="124.508" width="225" height="28.8333" fill="#004EFF"/>
<rect x="12" y="153.342" width="225" height="28.8333" fill="#7E2286"/>
<path d="M12 -17.2224L124.897 95.6749L12 208.572V-17.2224Z" fill="black"/>
<path d="M12 -3.83618L111.511 95.6748L12 195.186V-3.83618Z" fill="#693607"/>
<path d="M12 9.88123L97.7937 95.6749L12 181.469V9.88123Z" fill="#00D2FF"/>
<path d="M12 24.0074L83.6675 95.675L12 167.343V24.0074Z" fill="#FFA5B8"/>
<path d="M12 36.8583L70.8167 95.675L12 154.492V36.8583Z" fill="white"/>
</g>
</g>
<mask id="mask5_11_1556" style="mask-type:alpha" maskUnits="userSpaceOnUse" x="73" y="11" width="9" height="174">
<rect x="73" y="11.1749" width="9" height="173" rx="4.5" fill="#D9D9D9"/>
</mask>
<g mask="url(#mask5_11_1556)">
<g clip-path="url(#clip5_11_1556)">
<rect x="13" y="11.1749" width="225" height="28.8333" fill="#F90000"/>
<rect x="13" y="40.0083" width="225" height="28.8333" fill="#FF8400"/>
<rect x="13" y="68.8416" width="225" height="28.8333" fill="#FFEB00"/>
<rect x="13" y="97.6749" width="225" height="28.8333" fill="#008200"/>
<rect x="13" y="126.508" width="225" height="28.8333" fill="#004EFF"/>
<rect x="13" y="155.342" width="225" height="28.8333" fill="#7E2286"/>
<path d="M13 -15.2224L125.897 97.6749L13 210.572V-15.2224Z" fill="black"/>
<path d="M13 -1.83618L112.511 97.6748L13 197.186V-1.83618Z" fill="#693607"/>
<path d="M13 11.8812L98.7937 97.6749L13 183.469V11.8812Z" fill="#00D2FF"/>
<path d="M13 26.0074L84.6675 97.675L13 169.343V26.0074Z" fill="#FFA5B8"/>
</g>
</g>
<mask id="mask6_11_1556" style="mask-type:alpha" maskUnits="userSpaceOnUse" x="86" y="15" width="9" height="174">
<rect x="86" y="15.1749" width="9" height="173" rx="4.5" fill="#D9D9D9"/>
</mask>
<g mask="url(#mask6_11_1556)">
<g clip-path="url(#clip6_11_1556)">
<rect x="14" y="15.1749" width="225" height="28.8333" fill="#F90000"/>
<rect x="14" y="44.0083" width="225" height="28.8333" fill="#FF8400"/>
<rect x="14" y="72.8416" width="225" height="28.8333" fill="#FFEB00"/>
<rect x="14" y="101.675" width="225" height="28.8333" fill="#008200"/>
<rect x="14" y="130.508" width="225" height="28.8333" fill="#004EFF"/>
<rect x="14" y="159.342" width="225" height="28.8333" fill="#7E2286"/>
<path d="M14 -11.2224L126.897 101.675L14 214.572V-11.2224Z" fill="black"/>
<path d="M14 2.16382L113.511 101.675L14 201.186V2.16382Z" fill="#693607"/>
<path d="M14 15.8812L99.7937 101.675L14 187.469V15.8812Z" fill="#00D2FF"/>
</g>
</g>
<mask id="mask7_11_1556" style="mask-type:alpha" maskUnits="userSpaceOnUse" x="99" y="19" width="9" height="174">
<rect x="99" y="19.1749" width="9" height="173" rx="4.5" fill="#D9D9D9"/>
</mask>
<g mask="url(#mask7_11_1556)">
<g clip-path="url(#clip7_11_1556)">
<rect x="15" y="19.1749" width="225" height="28.8333" fill="#F90000"/>
<rect x="15" y="48.0083" width="225" height="28.8333" fill="#FF8400"/>
<rect x="15" y="76.8416" width="225" height="28.8333" fill="#FFEB00"/>
<rect x="15" y="105.675" width="225" height="28.8333" fill="#008200"/>
<rect x="15" y="134.508" width="225" height="28.8333" fill="#004EFF"/>
<rect x="15" y="163.342" width="225" height="28.8333" fill="#7E2286"/>
<path d="M15 -7.22241L127.897 105.675L15 218.572V-7.22241Z" fill="black"/>
<path d="M15 6.16382L114.511 105.675L15 205.186V6.16382Z" fill="#693607"/>
<path d="M15 19.8812L100.794 105.675L15 191.469V19.8812Z" fill="#00D2FF"/>
</g>
</g>
<mask id="mask8_11_1556" style="mask-type:alpha" maskUnits="userSpaceOnUse" x="112" y="22" width="9" height="174">
<rect x="112" y="22.1749" width="9" height="173" rx="4.5" fill="#D9D9D9"/>
</mask>
<g mask="url(#mask8_11_1556)">
<g clip-path="url(#clip8_11_1556)">
<rect x="16" y="22.1749" width="225" height="28.8333" fill="#F90000"/>
<rect x="16" y="51.0083" width="225" height="28.8333" fill="#FF8400"/>
<rect x="16" y="79.8416" width="225" height="28.8333" fill="#FFEB00"/>
<rect x="16" y="108.675" width="225" height="28.8333" fill="#008200"/>
<rect x="16" y="137.508" width="225" height="28.8333" fill="#004EFF"/>
<rect x="16" y="166.342" width="225" height="28.8333" fill="#7E2286"/>
<path d="M16 -4.22241L128.897 108.675L16 221.572V-4.22241Z" fill="black"/>
<path d="M16 9.16382L115.511 108.675L16 208.186V9.16382Z" fill="#693607"/>
</g>
</g>
<mask id="mask9_11_1556" style="mask-type:alpha" maskUnits="userSpaceOnUse" x="125" y="23" width="9" height="174">
<rect x="125" y="23.1749" width="9" height="173" rx="4.5" fill="#D9D9D9"/>
</mask>
<g mask="url(#mask9_11_1556)">
<g clip-path="url(#clip9_11_1556)">
<rect x="17" y="23.1749" width="225" height="28.8333" fill="#F90000"/>
<rect x="17" y="52.0083" width="225" height="28.8333" fill="#FF8400"/>
<rect x="17" y="80.8416" width="225" height="28.8333" fill="#FFEB00"/>
<rect x="17" y="109.675" width="225" height="28.8333" fill="#008200"/>
<rect x="17" y="138.508" width="225" height="28.8333" fill="#004EFF"/>
<rect x="17" y="167.342" width="225" height="28.8333" fill="#7E2286"/>
<path d="M17 -3.22241L129.897 109.675L17 222.572V-3.22241Z" fill="black"/>
</g>
</g>
<mask id="mask10_11_1556" style="mask-type:alpha" maskUnits="userSpaceOnUse" x="138" y="22" width="9" height="174">
<rect x="138" y="22.1749" width="9" height="173" rx="4.5" fill="#D9D9D9"/>
</mask>
<g mask="url(#mask10_11_1556)">
<g clip-path="url(#clip10_11_1556)">
<rect x="18" y="22.1749" width="225" height="28.8333" fill="#F90000"/>
<rect x="18" y="51.0083" width="225" height="28.8333" fill="#FF8400"/>
<rect x="18" y="79.8416" width="225" height="28.8333" fill="#FFEB00"/>
<rect x="18" y="108.675" width="225" height="28.8333" fill="#008200"/>
<rect x="18" y="137.508" width="225" height="28.8333" fill="#004EFF"/>
<rect x="18" y="166.342" width="225" height="28.8333" fill="#7E2286"/>
</g>
</g>
<mask id="mask11_11_1556" style="mask-type:alpha" maskUnits="userSpaceOnUse" x="151" y="19" width="9" height="174">
<rect x="151" y="19.1749" width="9" height="173" rx="4.5" fill="#D9D9D9"/>
</mask>
<g mask="url(#mask11_11_1556)">
<g clip-path="url(#clip11_11_1556)">
<rect x="19" y="19.1749" width="225" height="28.8333" fill="#F90000"/>
<rect x="19" y="48.0083" width="225" height="28.8333" fill="#FF8400"/>
<rect x="19" y="76.8416" width="225" height="28.8333" fill="#FFEB00"/>
<rect x="19" y="105.675" width="225" height="28.8333" fill="#008200"/>
<rect x="19" y="134.508" width="225" height="28.8333" fill="#004EFF"/>
<rect x="19" y="163.342" width="225" height="28.8333" fill="#7E2286"/>
</g>
</g>
<mask id="mask12_11_1556" style="mask-type:alpha" maskUnits="userSpaceOnUse" x="164" y="15" width="9" height="174">
<rect x="164" y="15.1749" width="9" height="173" rx="4.5" fill="#D9D9D9"/>
</mask>
<g mask="url(#mask12_11_1556)">
<g clip-path="url(#clip12_11_1556)">
<rect x="20" y="15.1749" width="225" height="28.8333" fill="#F90000"/>
<rect x="20" y="44.0083" width="225" height="28.8333" fill="#FF8400"/>
<rect x="20" y="72.8416" width="225" height="28.8333" fill="#FFEB00"/>
<rect x="20" y="101.675" width="225" height="28.8333" fill="#008200"/>
<rect x="20" y="130.508" width="225" height="28.8333" fill="#004EFF"/>
<rect x="20" y="159.342" width="225" height="28.8333" fill="#7E2286"/>
</g>
</g>
<mask id="mask13_11_1556" style="mask-type:alpha" maskUnits="userSpaceOnUse" x="177" y="11" width="9" height="174">
<rect x="177" y="11.1749" width="9" height="173" rx="4.5" fill="#D9D9D9"/>
</mask>
<g mask="url(#mask13_11_1556)">
<g clip-path="url(#clip13_11_1556)">
<rect x="21" y="11.1749" width="225" height="28.8333" fill="#F90000"/>
<rect x="21" y="40.0083" width="225" height="28.8333" fill="#FF8400"/>
<rect x="21" y="68.8416" width="225" height="28.8333" fill="#FFEB00"/>
<rect x="21" y="97.6749" width="225" height="28.8333" fill="#008200"/>
<rect x="21" y="126.508" width="225" height="28.8333" fill="#004EFF"/>
<rect x="21" y="155.342" width="225" height="28.8333" fill="#7E2286"/>
</g>
</g>
<mask id="mask14_11_1556" style="mask-type:alpha" maskUnits="userSpaceOnUse" x="190" y="9" width="9" height="174">
<rect x="190" y="9.17493" width="9" height="173" rx="4.5" fill="#D9D9D9"/>
</mask>
<g mask="url(#mask14_11_1556)">
<g clip-path="url(#clip14_11_1556)">
<rect x="22" y="9.17493" width="225" height="28.8333" fill="#F90000"/>
<rect x="22" y="38.0083" width="225" height="28.8333" fill="#FF8400"/>
<rect x="22" y="66.8416" width="225" height="28.8333" fill="#FFEB00"/>
<rect x="22" y="95.6749" width="225" height="28.8333" fill="#008200"/>
<rect x="22" y="124.508" width="225" height="28.8333" fill="#004EFF"/>
<rect x="22" y="153.342" width="225" height="28.8333" fill="#7E2286"/>
</g>
</g>
<mask id="mask15_11_1556" style="mask-type:alpha" maskUnits="userSpaceOnUse" x="203" y="8" width="9" height="174">
<rect x="203" y="8.17493" width="9" height="173" rx="4.5" fill="#D9D9D9"/>
</mask>
<g mask="url(#mask15_11_1556)">
<g clip-path="url(#clip15_11_1556)">
<rect x="23" y="8.17493" width="225" height="28.8333" fill="#F90000"/>
<rect x="23" y="37.0083" width="225" height="28.8333" fill="#FF8400"/>
<rect x="23" y="65.8416" width="225" height="28.8333" fill="#FFEB00"/>
<rect x="23" y="94.6749" width="225" height="28.8333" fill="#008200"/>
<rect x="23" y="123.508" width="225" height="28.8333" fill="#004EFF"/>
<rect x="23" y="152.342" width="225" height="28.8333" fill="#7E2286"/>
</g>
</g>
<mask id="mask16_11_1556" style="mask-type:alpha" maskUnits="userSpaceOnUse" x="216" y="9" width="9" height="174">
<rect x="216" y="9.17493" width="9" height="173" rx="4.5" fill="#D9D9D9"/>
</mask>
<g mask="url(#mask16_11_1556)">
<g clip-path="url(#clip16_11_1556)">
<rect x="24" y="9.17493" width="225" height="28.8333" fill="#F90000"/>
<rect x="24" y="38.0083" width="225" height="28.8333" fill="#FF8400"/>
<rect x="24" y="66.8416" width="225" height="28.8333" fill="#FFEB00"/>
<rect x="24" y="95.6749" width="225" height="28.8333" fill="#008200"/>
<rect x="24" y="124.508" width="225" height="28.8333" fill="#004EFF"/>
<rect x="24" y="153.342" width="225" height="28.8333" fill="#7E2286"/>
</g>
</g>
<mask id="mask17_11_1556" style="mask-type:alpha" maskUnits="userSpaceOnUse" x="229" y="11" width="9" height="174">
<rect x="229" y="11.1749" width="9" height="173" rx="4.5" fill="#D9D9D9"/>
</mask>
<g mask="url(#mask17_11_1556)">
<g clip-path="url(#clip17_11_1556)">
<rect x="25" y="11.1749" width="225" height="28.8333" fill="#F90000"/>
<rect x="25" y="40.0083" width="225" height="28.8333" fill="#FF8400"/>
<rect x="25" y="68.8416" width="225" height="28.8333" fill="#FFEB00"/>
<rect x="25" y="97.6749" width="225" height="28.8333" fill="#008200"/>
<rect x="25" y="126.508" width="225" height="28.8333" fill="#004EFF"/>
<rect x="25" y="155.342" width="225" height="28.8333" fill="#7E2286"/>
</g>
</g>
<mask id="mask18_11_1556" style="mask-type:alpha" maskUnits="userSpaceOnUse" x="242" y="15" width="9" height="174">
<rect x="242" y="15.1749" width="9" height="173" rx="4.5" fill="#D9D9D9"/>
</mask>
<g mask="url(#mask18_11_1556)">
<g clip-path="url(#clip18_11_1556)">
<rect x="26" y="15.1749" width="225" height="28.8333" fill="#F90000"/>
<rect x="26" y="44.0083" width="225" height="28.8333" fill="#FF8400"/>
<rect x="26" y="72.8416" width="225" height="28.8333" fill="#FFEB00"/>
<rect x="26" y="101.675" width="225" height="28.8333" fill="#008200"/>
<rect x="26" y="130.508" width="225" height="28.8333" fill="#004EFF"/>
<rect x="26" y="159.342" width="225" height="28.8333" fill="#7E2286"/>
</g>
</g>
<defs>
<clipPath id="clip0_11_1556">
<rect width="225" height="173" fill="white" transform="translate(8 15.1749)"/>
</clipPath>
<clipPath id="clip1_11_1556">
<rect width="225" height="173" fill="white" transform="translate(9 11.1749)"/>
</clipPath>
<clipPath id="clip2_11_1556">
<rect width="225" height="173" fill="white" transform="translate(10 9.17493)"/>
</clipPath>
<clipPath id="clip3_11_1556">
<rect width="225" height="173" fill="white" transform="translate(11 8.17493)"/>
</clipPath>
<clipPath id="clip4_11_1556">
<rect width="225" height="173" fill="white" transform="translate(12 9.17493)"/>
</clipPath>
<clipPath id="clip5_11_1556">
<rect width="225" height="173" fill="white" transform="translate(13 11.1749)"/>
</clipPath>
<clipPath id="clip6_11_1556">
<rect width="225" height="173" fill="white" transform="translate(14 15.1749)"/>
</clipPath>
<clipPath id="clip7_11_1556">
<rect width="225" height="173" fill="white" transform="translate(15 19.1749)"/>
</clipPath>
<clipPath id="clip8_11_1556">
<rect width="225" height="173" fill="white" transform="translate(16 22.1749)"/>
</clipPath>
<clipPath id="clip9_11_1556">
<rect width="225" height="173" fill="white" transform="translate(17 23.1749)"/>
</clipPath>
<clipPath id="clip10_11_1556">
<rect width="225" height="173" fill="white" transform="translate(18 22.1749)"/>
</clipPath>
<clipPath id="clip11_11_1556">
<rect width="225" height="173" fill="white" transform="translate(19 19.1749)"/>
</clipPath>
<clipPath id="clip12_11_1556">
<rect width="225" height="173" fill="white" transform="translate(20 15.1749)"/>
</clipPath>
<clipPath id="clip13_11_1556">
<rect width="225" height="173" fill="white" transform="translate(21 11.1749)"/>
</clipPath>
<clipPath id="clip14_11_1556">
<rect width="225" height="173" fill="white" transform="translate(22 9.17493)"/>
</clipPath>
<clipPath id="clip15_11_1556">
<rect width="225" height="173" fill="white" transform="translate(23 8.17493)"/>
</clipPath>
<clipPath id="clip16_11_1556">
<rect width="225" height="173" fill="white" transform="translate(24 9.17493)"/>
</clipPath>
<clipPath id="clip17_11_1556">
<rect width="225" height="173" fill="white" transform="translate(25 11.1749)"/>
</clipPath>
<clipPath id="clip18_11_1556">
<rect width="225" height="173" fill="white" transform="translate(26 15.1749)"/>
</clipPath>
</defs>
</svg>
