<svg width="251" height="349" viewBox="0 0 251 349" fill="none" xmlns="http://www.w3.org/2000/svg">
<path d="M112.567 13.3076C118.529 2.95288 133.471 2.95288 139.433 13.3076L238.757 185.817C243.598 194.226 239.611 204.965 230.456 208.178L134.442 241.866C128.977 243.784 123.023 243.784 117.558 241.866L21.5439 208.178C12.3886 204.965 8.40192 194.226 13.2432 185.817L112.567 13.3076Z" fill="#D9D9D9" stroke="currentColor" stroke-width="11"/>
<mask id="mask0_14_190" style="mask-type:alpha" maskUnits="userSpaceOnUse" x="16" y="11" width="220" height="227">
<path d="M117.334 16.0519C121.18 9.37139 130.82 9.37139 134.666 16.0519L233.99 188.562C237.114 193.987 234.542 200.915 228.635 202.988L132.622 236.677C128.335 238.181 123.665 238.181 119.378 236.677L23.365 202.988C17.4583 200.915 14.8863 193.987 18.0097 188.562L117.334 16.0519Z" fill="#D9D9D9"/>
</mask>
<g mask="url(#mask0_14_190)">
<path d="M240.117 -191L-0.883052 208L240.117 -60.3363V-191Z" fill="#FF4382"/>
<path d="M240.117 -60L-0.883052 208L240.117 7V-60Z" fill="#FF9D49"/>
<path d="M240.117 7L-0.883052 208L240.117 78V7Z" fill="#EDEB5A"/>
<path d="M240.117 78L-0.883052 208L240.117 145V78Z" fill="#4DD7BC"/>
<path d="M240.117 145L-0.883052 208H240.117V145Z" fill="#00ACCB"/>
<path d="M291.117 188L-0.883062 208L240.365 278L291.117 188Z" fill="#6500B2"/>
<path d="M275.117 239.5L-0.883053 208L240.465 278L275.117 239.5Z" fill="#0C0C0C"/>
</g>
<path d="M3.65625 330V273.273H28.142C32.3523 273.273 36.0362 274.104 39.1939 275.766C42.3516 277.428 44.8075 279.763 46.5618 282.773C48.3161 285.783 49.1932 289.301 49.1932 293.327C49.1932 297.389 48.2884 300.907 46.4787 303.88C44.6875 306.853 42.1669 309.143 38.9169 310.749C35.6854 312.356 31.9091 313.159 27.5881 313.159H12.9631V301.193H24.4858C26.2955 301.193 27.8374 300.879 29.1115 300.251C30.4041 299.605 31.392 298.691 32.0753 297.509C32.777 296.327 33.1278 294.933 33.1278 293.327C33.1278 291.702 32.777 290.317 32.0753 289.172C31.392 288.009 30.4041 287.122 29.1115 286.513C27.8374 285.885 26.2955 285.571 24.4858 285.571H19.0568V330H3.65625ZM54.8438 330V273.273H79.3295C83.5398 273.273 87.2237 274.039 90.3814 275.572C93.5391 277.104 95.995 279.311 97.7493 282.192C99.5036 285.072 100.381 288.526 100.381 292.551C100.381 296.614 99.4759 300.039 97.6662 302.827C95.875 305.616 93.3544 307.721 90.1044 309.143C86.8729 310.565 83.0966 311.276 78.7756 311.276H64.1506V299.31H75.6733C77.483 299.31 79.0249 299.088 80.299 298.645C81.5916 298.183 82.5795 297.454 83.2628 296.457C83.9645 295.46 84.3153 294.158 84.3153 292.551C84.3153 290.926 83.9645 289.606 83.2628 288.59C82.5795 287.556 81.5916 286.799 80.299 286.319C79.0249 285.82 77.483 285.571 75.6733 285.571H70.2443V330H54.8438ZM88.0824 303.963L102.264 330H85.5341L71.6847 303.963H88.0824ZM122.346 273.273V330H106.945V273.273H122.346ZM160.224 291C160.076 289.153 159.384 287.713 158.147 286.679C156.928 285.645 155.072 285.128 152.579 285.128C150.991 285.128 149.689 285.322 148.674 285.71C147.676 286.079 146.938 286.587 146.458 287.233C145.978 287.879 145.728 288.618 145.71 289.449C145.673 290.132 145.793 290.751 146.07 291.305C146.365 291.84 146.827 292.33 147.455 292.773C148.083 293.197 148.886 293.585 149.865 293.936C150.843 294.287 152.007 294.601 153.355 294.878L158.008 295.875C161.147 296.54 163.834 297.417 166.069 298.506C168.303 299.596 170.131 300.879 171.553 302.357C172.975 303.815 174.018 305.459 174.683 307.287C175.366 309.115 175.717 311.109 175.735 313.27C175.717 317 174.784 320.158 172.938 322.743C171.091 325.328 168.451 327.295 165.016 328.643C161.6 329.991 157.491 330.665 152.69 330.665C147.76 330.665 143.457 329.935 139.782 328.477C136.126 327.018 133.282 324.774 131.251 321.746C129.238 318.699 128.223 314.803 128.204 310.057H142.829C142.922 311.793 143.355 313.251 144.131 314.433C144.907 315.615 145.996 316.511 147.4 317.12C148.821 317.729 150.511 318.034 152.468 318.034C154.112 318.034 155.488 317.831 156.596 317.425C157.703 317.018 158.544 316.455 159.116 315.735C159.689 315.015 159.984 314.193 160.002 313.27C159.984 312.402 159.698 311.645 159.144 310.999C158.608 310.334 157.722 309.743 156.485 309.226C155.248 308.69 153.576 308.192 151.471 307.73L145.821 306.511C140.798 305.422 136.837 303.603 133.938 301.055C131.057 298.488 129.626 294.989 129.645 290.557C129.626 286.956 130.586 283.808 132.525 281.112C134.483 278.397 137.188 276.283 140.641 274.768C144.113 273.254 148.092 272.497 152.579 272.497C157.159 272.497 161.12 273.263 164.462 274.796C167.804 276.329 170.38 278.489 172.19 281.278C174.018 284.048 174.941 287.288 174.96 291H160.224ZM181.594 273.273H200.761L213.946 305.403H214.611L227.795 273.273H246.963V330H231.895V297.205H231.452L218.821 329.557H209.736L197.105 296.983H196.662V330H181.594V273.273Z" fill="currentColor"/>
</svg>
